G04*
G04 #@! TF.GenerationSoftware,Altium Limited,Altium Designer,20.2.6 (244)*
G04*
G04 Layer_Color=16711935*
%FSLAX44Y44*%
%MOMM*%
G71*
G04*
G04 #@! TF.SameCoordinates,0F27BA18-1C3A-4387-AE1D-EB8F93CB1518*
G04*
G04*
G04 #@! TF.FilePolarity,Negative*
G04*
G01*
G75*
%ADD12C,0.2032*%
%ADD13R,0.2032X0.2032*%
%ADD34C,0.9902*%
%ADD35R,6.5532X5.2832*%
%ADD36R,1.1032X1.0032*%
%ADD37R,1.0032X1.0032*%
%ADD38R,1.0032X1.0032*%
%ADD39R,0.5032X2.0032*%
%ADD40R,4.5632X4.3132*%
%ADD41O,2.0032X0.5032*%
%ADD42O,0.5032X2.0032*%
%ADD43R,1.0032X1.1032*%
%ADD44R,2.9032X2.3032*%
%ADD45R,1.4032X2.0032*%
%ADD46R,1.5032X2.1032*%
%ADD47R,1.7532X1.2032*%
%ADD48R,0.8032X1.3532*%
D12*
X2395780Y1823730D02*
D03*
X2395780Y1844050D02*
D03*
X2446580Y1833890D02*
D03*
D13*
X2477510Y1456540D02*
D03*
D34*
X2433880Y1840240D02*
D03*
X2408180Y1839890D02*
D03*
X2408480Y1827540D02*
D03*
X2421180Y1840240D02*
D03*
Y1827540D02*
D03*
X2433880D02*
D03*
D35*
X2509260Y1410340D02*
D03*
Y1301240D02*
D03*
X1957860D02*
D03*
Y1410340D02*
D03*
D36*
X2539000Y1663000D02*
D03*
Y1649000D02*
D03*
Y1719000D02*
D03*
Y1705000D02*
D03*
X2528000Y1753000D02*
D03*
Y1739000D02*
D03*
X2524000Y1688000D02*
D03*
Y1674000D02*
D03*
X2503000Y1753000D02*
D03*
Y1739000D02*
D03*
X2426000Y1639000D02*
D03*
Y1653000D02*
D03*
X2595000Y1683000D02*
D03*
Y1697000D02*
D03*
D37*
X2539000Y1678000D02*
D03*
Y1694000D02*
D03*
X2156000Y1627000D02*
D03*
Y1643000D02*
D03*
X2516000Y1754000D02*
D03*
Y1738000D02*
D03*
X2521000Y1659000D02*
D03*
Y1643000D02*
D03*
D38*
X2485000Y1767000D02*
D03*
X2469000D02*
D03*
X2432000Y1796000D02*
D03*
X2416000D02*
D03*
X2156000Y1761931D02*
D03*
X2140000D02*
D03*
X2090000Y1689543D02*
D03*
X2106000D02*
D03*
D39*
X2150250Y1737000D02*
D03*
X2156750D02*
D03*
X2163250D02*
D03*
X2169750D02*
D03*
X2176250D02*
D03*
X2182750D02*
D03*
X2189250D02*
D03*
X2195750D02*
D03*
X2202250D02*
D03*
X2208750D02*
D03*
X2215250D02*
D03*
X2221750D02*
D03*
X2228250D02*
D03*
X2234750D02*
D03*
X2241250D02*
D03*
X2247750D02*
D03*
Y1663000D02*
D03*
X2241250D02*
D03*
X2234750D02*
D03*
X2228250D02*
D03*
X2221750D02*
D03*
X2215250D02*
D03*
X2208750D02*
D03*
X2202250D02*
D03*
X2195750D02*
D03*
X2189250D02*
D03*
X2182750D02*
D03*
X2176250D02*
D03*
X2169750D02*
D03*
X2163250D02*
D03*
X2156750D02*
D03*
X2150250D02*
D03*
D40*
X2199000Y1700000D02*
D03*
D41*
X2505500Y1723500D02*
D03*
Y1718500D02*
D03*
Y1713500D02*
D03*
Y1708500D02*
D03*
Y1703500D02*
D03*
Y1698500D02*
D03*
Y1693500D02*
D03*
Y1688500D02*
D03*
Y1683500D02*
D03*
Y1678500D02*
D03*
Y1673500D02*
D03*
Y1668500D02*
D03*
X2424500D02*
D03*
Y1673500D02*
D03*
Y1678500D02*
D03*
Y1683500D02*
D03*
Y1688500D02*
D03*
Y1693500D02*
D03*
Y1698500D02*
D03*
Y1703500D02*
D03*
Y1708500D02*
D03*
Y1713500D02*
D03*
Y1718500D02*
D03*
Y1723500D02*
D03*
D42*
X2492500Y1655500D02*
D03*
X2487500D02*
D03*
X2482500D02*
D03*
X2477500D02*
D03*
X2472500D02*
D03*
X2467500D02*
D03*
X2462500D02*
D03*
X2457500D02*
D03*
X2452500D02*
D03*
X2447500D02*
D03*
X2442500D02*
D03*
X2437500D02*
D03*
Y1736500D02*
D03*
X2442500D02*
D03*
X2447500D02*
D03*
X2452500D02*
D03*
X2457500D02*
D03*
X2462500D02*
D03*
X2467500D02*
D03*
X2472500D02*
D03*
X2477500D02*
D03*
X2482500D02*
D03*
X2487500D02*
D03*
X2492500D02*
D03*
D43*
X2406000Y1733000D02*
D03*
X2420000D02*
D03*
D44*
X1848360Y1380880D02*
D03*
Y1316880D02*
D03*
D45*
X2579000Y1657000D02*
D03*
Y1697000D02*
D03*
X2555000D02*
D03*
Y1657000D02*
D03*
D46*
X2558500Y1753000D02*
D03*
X2613500D02*
D03*
Y1721000D02*
D03*
X2558500D02*
D03*
D47*
X2079250Y2098000D02*
D03*
X2026750D02*
D03*
Y2066000D02*
D03*
X2079250D02*
D03*
D48*
X2098000Y1649750D02*
D03*
X2107500Y1672250D02*
D03*
X2088500D02*
D03*
M02*
