G04*
G04 #@! TF.GenerationSoftware,Altium Limited,Altium Designer,20.2.6 (244)*
G04*
G04 Layer_Physical_Order=1*
G04 Layer_Color=255*
%FSLAX44Y44*%
%MOMM*%
G71*
G04*
G04 #@! TF.SameCoordinates,0F27BA18-1C3A-4387-AE1D-EB8F93CB1518*
G04*
G04*
G04 #@! TF.FilePolarity,Positive*
G04*
G01*
G75*
%ADD10R,1.0000X1.4000*%
%ADD14C,0.2000*%
%ADD15C,0.3000*%
%ADD16C,0.4000*%
%ADD17C,0.6000*%
G36*
X2351974Y1868568D02*
X2352155Y1868387D01*
X2352296Y1868175D01*
X2352508Y1868033D01*
X2352688Y1867853D01*
X2352924Y1867755D01*
X2353137Y1867613D01*
X2353387Y1867563D01*
X2353622Y1867466D01*
X2353877Y1867466D01*
X2354128Y1867416D01*
X2918241D01*
X2918324Y1500721D01*
X2602532Y1500590D01*
X2602283Y1500540D01*
X2602028Y1500540D01*
X2601792Y1500442D01*
X2601541Y1500392D01*
X2601330Y1500251D01*
X2601095Y1500153D01*
X2600914Y1499973D01*
X2600701Y1499830D01*
X2600560Y1499619D01*
X2600380Y1499439D01*
X2600282Y1499203D01*
X2600140Y1498990D01*
X2600091Y1498740D01*
X2599993Y1498505D01*
X2599993Y1498250D01*
X2599944Y1497999D01*
X2599993Y1497749D01*
X2599993Y1497495D01*
X2600091Y1497259D01*
X2600141Y1497008D01*
X2600283Y1496796D01*
X2600380Y1496561D01*
X2768433Y1245008D01*
X2767834Y1243888D01*
X1669404D01*
X1668806Y1245008D01*
X1961202Y1682206D01*
X1961363Y1682595D01*
X1961589Y1683139D01*
Y1683139D01*
X1961589Y1683139D01*
X1961589Y1683542D01*
X1961589Y1684149D01*
X1961589Y1684150D01*
Y1684150D01*
X1961405Y1684597D01*
X1961203Y1685083D01*
X1667642Y2124974D01*
X1668240Y2126095D01*
X2179627Y2126646D01*
X2351974Y1868568D01*
D02*
G37*
%LPC*%
G36*
X2096000Y2093590D02*
X2092270D01*
Y2085270D01*
X2098590D01*
Y2091000D01*
X2098393Y2091991D01*
X2097831Y2092831D01*
X2096991Y2093393D01*
X2096000Y2093590D01*
D02*
G37*
G36*
X2089730D02*
X2086000D01*
X2085009Y2093393D01*
X2084169Y2092831D01*
X2083607Y2091991D01*
X2083410Y2091000D01*
Y2085270D01*
X2089730D01*
Y2093590D01*
D02*
G37*
G36*
X1804000Y2091590D02*
X1800270D01*
Y2083270D01*
X1806590D01*
Y2089000D01*
X1806393Y2089991D01*
X1805831Y2090831D01*
X1804991Y2091393D01*
X1804000Y2091590D01*
D02*
G37*
G36*
X1797730D02*
X1794000D01*
X1793009Y2091393D01*
X1792169Y2090831D01*
X1791607Y2089991D01*
X1791410Y2089000D01*
Y2083270D01*
X1797730D01*
Y2091590D01*
D02*
G37*
G36*
X2098590Y2082730D02*
X2092270D01*
Y2074410D01*
X2096000D01*
X2096991Y2074607D01*
X2097831Y2075169D01*
X2098393Y2076009D01*
X2098590Y2077000D01*
Y2082730D01*
D02*
G37*
G36*
X2089730D02*
X2083410D01*
Y2077000D01*
X2083607Y2076009D01*
X2084169Y2075169D01*
X2085009Y2074607D01*
X2086000Y2074410D01*
X2089730D01*
Y2082730D01*
D02*
G37*
G36*
X1806590Y2080730D02*
X1800270D01*
Y2072410D01*
X1804000D01*
X1804991Y2072607D01*
X1805831Y2073169D01*
X1806393Y2074009D01*
X1806590Y2075000D01*
Y2080730D01*
D02*
G37*
G36*
X1797730D02*
X1791410D01*
Y2075000D01*
X1791607Y2074009D01*
X1792169Y2073169D01*
X1793009Y2072607D01*
X1794000Y2072410D01*
X1797730D01*
Y2080730D01*
D02*
G37*
G36*
X1880000Y1974590D02*
X1876270D01*
Y1966270D01*
X1882590D01*
Y1972000D01*
X1882393Y1972991D01*
X1881831Y1973831D01*
X1880991Y1974393D01*
X1880000Y1974590D01*
D02*
G37*
G36*
X1873730D02*
X1870000D01*
X1869009Y1974393D01*
X1868169Y1973831D01*
X1867607Y1972991D01*
X1867410Y1972000D01*
Y1966270D01*
X1873730D01*
Y1974590D01*
D02*
G37*
G36*
X2176000Y1973590D02*
X2172270D01*
Y1965270D01*
X2178590D01*
Y1971000D01*
X2178393Y1971991D01*
X2177831Y1972831D01*
X2176991Y1973393D01*
X2176000Y1973590D01*
D02*
G37*
G36*
X2169730D02*
X2166000D01*
X2165009Y1973393D01*
X2164169Y1972831D01*
X2163607Y1971991D01*
X2163410Y1971000D01*
Y1965270D01*
X2169730D01*
Y1973590D01*
D02*
G37*
G36*
X1882590Y1963730D02*
X1876270D01*
Y1955410D01*
X1880000D01*
X1880991Y1955607D01*
X1881831Y1956169D01*
X1882393Y1957009D01*
X1882590Y1958000D01*
Y1963730D01*
D02*
G37*
G36*
X1873730D02*
X1867410D01*
Y1958000D01*
X1867607Y1957009D01*
X1868169Y1956169D01*
X1869009Y1955607D01*
X1870000Y1955410D01*
X1873730D01*
Y1963730D01*
D02*
G37*
G36*
X2178590Y1962730D02*
X2172270D01*
Y1954410D01*
X2176000D01*
X2176991Y1954607D01*
X2177831Y1955169D01*
X2178393Y1956009D01*
X2178590Y1957000D01*
Y1962730D01*
D02*
G37*
G36*
X2169730D02*
X2163410D01*
Y1957000D01*
X2163607Y1956009D01*
X2164169Y1955169D01*
X2165009Y1954607D01*
X2166000Y1954410D01*
X2169730D01*
Y1962730D01*
D02*
G37*
G36*
X2251000Y1860590D02*
X2247270D01*
Y1852270D01*
X2253590D01*
Y1858000D01*
X2253393Y1858991D01*
X2252831Y1859831D01*
X2251991Y1860393D01*
X2251000Y1860590D01*
D02*
G37*
G36*
X2244730D02*
X2241000D01*
X2240009Y1860393D01*
X2239169Y1859831D01*
X2238607Y1858991D01*
X2238410Y1858000D01*
Y1852270D01*
X2244730D01*
Y1860590D01*
D02*
G37*
G36*
X1960000Y1854590D02*
X1956270D01*
Y1846270D01*
X1962590D01*
Y1852000D01*
X1962393Y1852991D01*
X1961831Y1853831D01*
X1960991Y1854393D01*
X1960000Y1854590D01*
D02*
G37*
G36*
X1953730D02*
X1950000D01*
X1949009Y1854393D01*
X1948169Y1853831D01*
X1947607Y1852991D01*
X1947410Y1852000D01*
Y1846270D01*
X1953730D01*
Y1854590D01*
D02*
G37*
G36*
X2253590Y1849730D02*
X2247270D01*
Y1841410D01*
X2251000D01*
X2251991Y1841607D01*
X2252831Y1842169D01*
X2253393Y1843009D01*
X2253590Y1844000D01*
Y1849730D01*
D02*
G37*
G36*
X2244730D02*
X2238410D01*
Y1844000D01*
X2238607Y1843009D01*
X2239169Y1842169D01*
X2240009Y1841607D01*
X2241000Y1841410D01*
X2244730D01*
Y1849730D01*
D02*
G37*
G36*
X2395780Y1851738D02*
X2395530Y1851688D01*
X2395275D01*
X2393324Y1851300D01*
X2392390Y1850913D01*
X2390736Y1849808D01*
X2390022Y1849094D01*
X2388917Y1847440D01*
X2388530Y1846506D01*
X2388142Y1844555D01*
Y1843545D01*
X2388530Y1841594D01*
X2388917Y1840660D01*
X2390022Y1839006D01*
X2390736Y1838292D01*
X2392390Y1837187D01*
X2393324Y1836800D01*
X2395275Y1836412D01*
X2395530D01*
X2395780Y1836362D01*
X2396030Y1836412D01*
X2396285D01*
X2398236Y1836800D01*
X2399170Y1837187D01*
X2400824Y1838292D01*
X2401538Y1839006D01*
X2402643Y1840660D01*
X2403030Y1841594D01*
X2403418Y1843545D01*
Y1844555D01*
X2403030Y1846506D01*
X2402643Y1847440D01*
X2401538Y1849094D01*
X2400824Y1849808D01*
X2399170Y1850913D01*
X2398236Y1851300D01*
X2396285Y1851688D01*
X2396030D01*
X2395780Y1851738D01*
D02*
G37*
G36*
X1962590Y1843730D02*
X1956270D01*
Y1835410D01*
X1960000D01*
X1960991Y1835607D01*
X1961831Y1836169D01*
X1962393Y1837009D01*
X1962590Y1838000D01*
Y1843730D01*
D02*
G37*
G36*
X1953730D02*
X1947410D01*
Y1838000D01*
X1947607Y1837009D01*
X1948169Y1836169D01*
X1949009Y1835607D01*
X1950000Y1835410D01*
X1953730D01*
Y1843730D01*
D02*
G37*
G36*
X2395780Y1831418D02*
X2395530Y1831368D01*
X2395275D01*
X2393324Y1830980D01*
X2392390Y1830593D01*
X2390736Y1829488D01*
X2390022Y1828774D01*
X2388917Y1827120D01*
X2388530Y1826186D01*
X2388142Y1824235D01*
Y1823225D01*
X2388530Y1821274D01*
X2388917Y1820340D01*
X2390022Y1818686D01*
X2390736Y1817972D01*
X2392390Y1816867D01*
X2393324Y1816480D01*
X2395275Y1816092D01*
X2395530D01*
X2395780Y1816042D01*
X2396030Y1816092D01*
X2396285D01*
X2398236Y1816480D01*
X2399170Y1816867D01*
X2400824Y1817972D01*
X2401538Y1818686D01*
X2402643Y1820340D01*
X2403030Y1821274D01*
X2403418Y1823225D01*
Y1824235D01*
X2403030Y1826186D01*
X2402643Y1827120D01*
X2401538Y1828774D01*
X2400824Y1829488D01*
X2399170Y1830593D01*
X2398236Y1830980D01*
X2396285Y1831368D01*
X2396030D01*
X2395780Y1831418D01*
D02*
G37*
G36*
X2116000Y2092624D02*
X2106000D01*
X2104852Y2092148D01*
X2104376Y2091000D01*
Y2077000D01*
X2104852Y2075852D01*
X2106000Y2075376D01*
X2107941D01*
Y1937000D01*
X2107941Y1937000D01*
X2108174Y1935829D01*
X2108837Y1934837D01*
X2224941Y1818733D01*
Y1815036D01*
X2223671Y1814650D01*
X2223663Y1814663D01*
X1954163Y2084163D01*
X1953170Y2084826D01*
X1952000Y2085059D01*
X1952000Y2085059D01*
X1825624D01*
Y2089000D01*
X1825148Y2090148D01*
X1824000Y2090624D01*
X1814000D01*
X1812852Y2090148D01*
X1812376Y2089000D01*
Y2075000D01*
X1812852Y2073852D01*
X1814000Y2073376D01*
X1824000D01*
X1825148Y2073852D01*
X1825624Y2075000D01*
Y2078941D01*
X1950733D01*
X2218441Y1811233D01*
Y1807536D01*
X2217171Y1807150D01*
X2217163Y1807163D01*
X2057163Y1967163D01*
X2056171Y1967826D01*
X2055000Y1968059D01*
X2055000Y1968059D01*
X1901624D01*
Y1972000D01*
X1901148Y1973148D01*
X1900000Y1973624D01*
X1890000D01*
X1888852Y1973148D01*
X1888376Y1972000D01*
Y1958000D01*
X1888852Y1956852D01*
X1890000Y1956376D01*
X1900000D01*
X1901148Y1956852D01*
X1901624Y1958000D01*
Y1961941D01*
X2053733D01*
X2211941Y1803733D01*
Y1800036D01*
X2210671Y1799650D01*
X2210663Y1799663D01*
X2163163Y1847163D01*
X2162171Y1847826D01*
X2161000Y1848059D01*
X2161000Y1848059D01*
X1981624D01*
Y1852000D01*
X1981148Y1853148D01*
X1980000Y1853624D01*
X1970000D01*
X1968852Y1853148D01*
X1968376Y1852000D01*
Y1838000D01*
X1968852Y1836852D01*
X1970000Y1836376D01*
X1980000D01*
X1981148Y1836852D01*
X1981624Y1838000D01*
Y1841941D01*
X2159733D01*
X2205441Y1796233D01*
Y1792536D01*
X2204171Y1792150D01*
X2204163Y1792163D01*
X2196163Y1800163D01*
X2195170Y1800826D01*
X2194000Y1801059D01*
X2194000Y1801059D01*
X2052000D01*
X2052000Y1801059D01*
X2050829Y1800826D01*
X2049837Y1800163D01*
X2049837Y1800163D01*
X2049103Y1799429D01*
X2048000Y1799648D01*
X2045838Y1799219D01*
X2044006Y1797994D01*
X2042781Y1796162D01*
X2042352Y1794000D01*
X2042781Y1791838D01*
X2044006Y1790006D01*
X2045838Y1788781D01*
X2048000Y1788351D01*
X2050162Y1788781D01*
X2051994Y1790006D01*
X2053219Y1791838D01*
X2053649Y1794000D01*
X2054421Y1794941D01*
X2071311D01*
X2071790Y1793671D01*
X2070781Y1792162D01*
X2070352Y1790000D01*
X2070781Y1787838D01*
X2071790Y1786329D01*
X2071311Y1785059D01*
X2044000D01*
X2042829Y1784826D01*
X2041837Y1784163D01*
X1978837Y1721163D01*
X1978174Y1720170D01*
X1977941Y1719000D01*
X1977941Y1719000D01*
Y1541624D01*
X1976000D01*
X1974852Y1541148D01*
X1974376Y1540000D01*
Y1526000D01*
X1974852Y1524852D01*
X1976000Y1524376D01*
X1986000D01*
X1987148Y1524852D01*
X1987624Y1526000D01*
Y1540000D01*
X1987148Y1541148D01*
X1986000Y1541624D01*
X1984059D01*
Y1717733D01*
X2045267Y1778941D01*
X2109311D01*
X2109790Y1777671D01*
X2108781Y1776162D01*
X2108351Y1774000D01*
X2108781Y1771838D01*
X2110006Y1770006D01*
X2111838Y1768781D01*
X2114000Y1768351D01*
X2116162Y1768781D01*
X2117994Y1770006D01*
X2118278Y1770431D01*
X2133721D01*
X2134006Y1770006D01*
X2135838Y1768781D01*
X2138000Y1768351D01*
X2140162Y1768781D01*
X2141994Y1770006D01*
X2143219Y1771838D01*
X2143649Y1774000D01*
X2143219Y1776162D01*
X2142210Y1777671D01*
X2142689Y1778941D01*
X2182733D01*
X2185941Y1775733D01*
Y1761619D01*
X2185006Y1760994D01*
X2183781Y1759162D01*
X2183480Y1757645D01*
X2182235Y1756597D01*
X2181996Y1756645D01*
X2181765Y1756599D01*
X2180520Y1757646D01*
X2180219Y1759162D01*
X2178994Y1760994D01*
X2177162Y1762218D01*
X2175000Y1762648D01*
X2172838Y1762218D01*
X2171006Y1760994D01*
X2169781Y1759162D01*
X2169589Y1758194D01*
X2161198Y1749802D01*
X2160645Y1748975D01*
X2160451Y1748000D01*
Y1725960D01*
X2159006Y1724994D01*
X2157781Y1723162D01*
X2157352Y1721000D01*
X2157781Y1718838D01*
X2159006Y1717006D01*
X2160838Y1715782D01*
X2163000Y1715352D01*
X2165162Y1715782D01*
X2166994Y1717006D01*
X2168219Y1718838D01*
X2168649Y1721000D01*
X2168219Y1723162D01*
X2166994Y1724994D01*
X2165549Y1725960D01*
Y1746944D01*
X2171368Y1752764D01*
X2172838Y1751781D01*
X2175000Y1751351D01*
X2175231Y1751397D01*
X2176476Y1750350D01*
X2176777Y1748835D01*
X2178002Y1747002D01*
X2178937Y1746377D01*
Y1584263D01*
X2013733Y1419059D01*
X1908624D01*
Y1423000D01*
X1908148Y1424148D01*
X1907000Y1424624D01*
X1897000D01*
X1895852Y1424148D01*
X1895376Y1423000D01*
Y1409000D01*
X1895852Y1407852D01*
X1897000Y1407376D01*
X1907000D01*
X1908148Y1407852D01*
X1908624Y1409000D01*
Y1412941D01*
X2015000D01*
X2015000Y1412941D01*
X2016171Y1413174D01*
X2017163Y1413837D01*
X2184158Y1580833D01*
X2184158Y1580833D01*
X2184822Y1581825D01*
X2185054Y1582996D01*
Y1746377D01*
X2185990Y1747002D01*
X2187214Y1748835D01*
X2187370Y1749620D01*
X2188683Y1750497D01*
X2189446Y1750316D01*
X2189514Y1750159D01*
X2189777Y1748835D01*
X2191001Y1747002D01*
X2192834Y1745778D01*
X2194996Y1745348D01*
X2197157Y1745778D01*
X2198990Y1747002D01*
X2200214Y1748835D01*
X2200644Y1750997D01*
X2201165Y1751517D01*
X2202000Y1751351D01*
X2202462Y1751443D01*
X2203360Y1750545D01*
X2203351Y1750500D01*
X2203781Y1748338D01*
X2205006Y1746506D01*
X2206838Y1745281D01*
X2209000Y1744852D01*
X2211162Y1745281D01*
X2212994Y1746506D01*
X2214219Y1748338D01*
X2214577Y1750141D01*
X2214711Y1750523D01*
X2215182Y1750631D01*
X2215499Y1750460D01*
X2216428Y1749613D01*
X2216781Y1747838D01*
X2218006Y1746006D01*
X2219838Y1744781D01*
X2222000Y1744352D01*
X2224162Y1744781D01*
X2225994Y1746006D01*
X2227219Y1747838D01*
X2227648Y1750000D01*
X2228440Y1750566D01*
X2229352Y1750000D01*
X2229781Y1747838D01*
X2231006Y1746006D01*
X2232838Y1744781D01*
X2235000Y1744352D01*
X2237162Y1744781D01*
X2238994Y1746006D01*
X2240219Y1747838D01*
X2240648Y1750000D01*
X2240643Y1750026D01*
X2241488Y1751149D01*
X2243412Y1751531D01*
X2245244Y1752756D01*
X2246469Y1754588D01*
X2246898Y1756750D01*
X2246469Y1758912D01*
X2245244Y1760744D01*
X2244309Y1761369D01*
Y1810983D01*
X2268163Y1834837D01*
X2268826Y1835829D01*
X2269059Y1837000D01*
X2269059Y1837000D01*
Y1842376D01*
X2271000D01*
X2272148Y1842852D01*
X2272624Y1844000D01*
Y1858000D01*
X2272148Y1859148D01*
X2271000Y1859624D01*
X2261000D01*
X2259852Y1859148D01*
X2259376Y1858000D01*
Y1844000D01*
X2259852Y1842852D01*
X2261000Y1842376D01*
X2262941D01*
Y1838267D01*
X2239087Y1814413D01*
X2239079Y1814400D01*
X2237809Y1814786D01*
Y1826250D01*
X2237576Y1827421D01*
X2236913Y1828413D01*
X2236913Y1828413D01*
X2194059Y1871267D01*
Y1955376D01*
X2196000D01*
X2197148Y1955852D01*
X2197624Y1957000D01*
Y1971000D01*
X2197148Y1972148D01*
X2196000Y1972624D01*
X2186000D01*
X2184852Y1972148D01*
X2184376Y1971000D01*
Y1957000D01*
X2184852Y1955852D01*
X2186000Y1955376D01*
X2187941D01*
Y1870000D01*
X2187941Y1870000D01*
X2188174Y1868829D01*
X2188837Y1867837D01*
X2231691Y1824983D01*
Y1822162D01*
X2230421Y1821776D01*
X2230163Y1822163D01*
X2230163Y1822163D01*
X2114059Y1938267D01*
Y2075376D01*
X2116000D01*
X2117148Y2075852D01*
X2117624Y2077000D01*
Y2091000D01*
X2117148Y2092148D01*
X2116000Y2092624D01*
D02*
G37*
G36*
X2848000Y1807590D02*
X2844270D01*
Y1799270D01*
X2850590D01*
Y1805000D01*
X2850392Y1805991D01*
X2849831Y1806831D01*
X2848991Y1807393D01*
X2848000Y1807590D01*
D02*
G37*
G36*
X2841730D02*
X2838000D01*
X2837009Y1807393D01*
X2836169Y1806831D01*
X2835607Y1805991D01*
X2835410Y1805000D01*
Y1799270D01*
X2841730D01*
Y1807590D01*
D02*
G37*
G36*
X2713000D02*
X2709270D01*
Y1799270D01*
X2715590D01*
Y1805000D01*
X2715392Y1805991D01*
X2714831Y1806831D01*
X2713991Y1807393D01*
X2713000Y1807590D01*
D02*
G37*
G36*
X2706730D02*
X2703000D01*
X2702009Y1807393D01*
X2701169Y1806831D01*
X2700607Y1805991D01*
X2700410Y1805000D01*
Y1799270D01*
X2706730D01*
Y1807590D01*
D02*
G37*
G36*
X2561000Y1806590D02*
X2557270D01*
Y1798270D01*
X2563590D01*
Y1804000D01*
X2563393Y1804991D01*
X2562831Y1805831D01*
X2561991Y1806393D01*
X2561000Y1806590D01*
D02*
G37*
G36*
X2554730D02*
X2551000D01*
X2550009Y1806393D01*
X2549169Y1805831D01*
X2548607Y1804991D01*
X2548410Y1804000D01*
Y1798270D01*
X2554730D01*
Y1806590D01*
D02*
G37*
G36*
X2457270Y1801396D02*
Y1797270D01*
X2461396D01*
X2461219Y1798162D01*
X2459994Y1799994D01*
X2458162Y1801219D01*
X2457270Y1801396D01*
D02*
G37*
G36*
X2454730D02*
X2453838Y1801219D01*
X2452006Y1799994D01*
X2450781Y1798162D01*
X2450604Y1797270D01*
X2454730D01*
Y1801396D01*
D02*
G37*
G36*
X2461396Y1794730D02*
X2457270D01*
Y1790604D01*
X2458162Y1790781D01*
X2459994Y1792006D01*
X2461219Y1793838D01*
X2461396Y1794730D01*
D02*
G37*
G36*
X2454730D02*
X2450604D01*
X2450781Y1793838D01*
X2452006Y1792006D01*
X2453838Y1790781D01*
X2454730Y1790604D01*
Y1794730D01*
D02*
G37*
G36*
X2850590Y1796730D02*
X2844270D01*
Y1788410D01*
X2848000D01*
X2848991Y1788607D01*
X2849831Y1789169D01*
X2850392Y1790009D01*
X2850590Y1791000D01*
Y1796730D01*
D02*
G37*
G36*
X2841730D02*
X2835410D01*
Y1791000D01*
X2835607Y1790009D01*
X2836169Y1789169D01*
X2837009Y1788607D01*
X2838000Y1788410D01*
X2841730D01*
Y1796730D01*
D02*
G37*
G36*
X2715590Y1796730D02*
X2709270D01*
Y1788410D01*
X2713000D01*
X2713991Y1788607D01*
X2714831Y1789169D01*
X2715392Y1790009D01*
X2715590Y1791000D01*
Y1796730D01*
D02*
G37*
G36*
X2706730D02*
X2700410D01*
Y1791000D01*
X2700607Y1790009D01*
X2701169Y1789169D01*
X2702009Y1788607D01*
X2703000Y1788410D01*
X2706730D01*
Y1796730D01*
D02*
G37*
G36*
X2563590Y1795730D02*
X2557270D01*
Y1787410D01*
X2561000D01*
X2561991Y1787607D01*
X2562831Y1788169D01*
X2563393Y1789009D01*
X2563590Y1790000D01*
Y1795730D01*
D02*
G37*
G36*
X2554730D02*
X2548410D01*
Y1790000D01*
X2548607Y1789009D01*
X2549169Y1788169D01*
X2550009Y1787607D01*
X2551000Y1787410D01*
X2554730D01*
Y1795730D01*
D02*
G37*
G36*
X2517270Y1768396D02*
Y1764270D01*
X2521396D01*
X2521219Y1765162D01*
X2519994Y1766994D01*
X2518162Y1768219D01*
X2517270Y1768396D01*
D02*
G37*
G36*
X2514730D02*
X2513838Y1768219D01*
X2512006Y1766994D01*
X2510781Y1765162D01*
X2510604Y1764270D01*
X2514730D01*
Y1768396D01*
D02*
G37*
G36*
X2503000Y1792648D02*
X2500838Y1792219D01*
X2499006Y1790994D01*
X2497781Y1789162D01*
X2497352Y1787000D01*
X2497781Y1784838D01*
X2499006Y1783006D01*
X2500451Y1782040D01*
Y1771960D01*
X2499006Y1770994D01*
X2497781Y1769162D01*
X2497352Y1767000D01*
X2497781Y1764838D01*
X2499006Y1763006D01*
X2500838Y1761781D01*
X2503000Y1761351D01*
X2505162Y1761781D01*
X2506994Y1763006D01*
X2508219Y1764838D01*
X2508649Y1767000D01*
X2508219Y1769162D01*
X2506994Y1770994D01*
X2505549Y1771960D01*
Y1782040D01*
X2506994Y1783006D01*
X2508219Y1784838D01*
X2508649Y1787000D01*
X2508219Y1789162D01*
X2506994Y1790994D01*
X2505162Y1792219D01*
X2503000Y1792648D01*
D02*
G37*
G36*
X2521396Y1761730D02*
X2517270D01*
Y1757604D01*
X2518162Y1757781D01*
X2519994Y1759006D01*
X2521219Y1760838D01*
X2521396Y1761730D01*
D02*
G37*
G36*
X2514730D02*
X2510604D01*
X2510781Y1760838D01*
X2512006Y1759006D01*
X2513838Y1757781D01*
X2514730Y1757604D01*
Y1761730D01*
D02*
G37*
G36*
X2411270Y1751396D02*
Y1747270D01*
X2415396D01*
X2415219Y1748162D01*
X2413994Y1749994D01*
X2412162Y1751219D01*
X2411270Y1751396D01*
D02*
G37*
G36*
X2408730D02*
X2407838Y1751219D01*
X2406006Y1749994D01*
X2404781Y1748162D01*
X2404604Y1747270D01*
X2408730D01*
Y1751396D01*
D02*
G37*
G36*
X2415396Y1744730D02*
X2411270D01*
Y1740604D01*
X2412162Y1740781D01*
X2413994Y1742006D01*
X2415219Y1743838D01*
X2415396Y1744730D01*
D02*
G37*
G36*
X2408730D02*
X2404604D01*
X2404781Y1743838D01*
X2406006Y1742006D01*
X2407838Y1740781D01*
X2408730Y1740604D01*
Y1744730D01*
D02*
G37*
G36*
X2328000Y1744590D02*
X2324270D01*
Y1736270D01*
X2330590D01*
Y1742000D01*
X2330393Y1742991D01*
X2329831Y1743831D01*
X2328991Y1744393D01*
X2328000Y1744590D01*
D02*
G37*
G36*
X2321730D02*
X2318000D01*
X2317009Y1744393D01*
X2316169Y1743831D01*
X2315607Y1742991D01*
X2315410Y1742000D01*
Y1736270D01*
X2321730D01*
Y1744590D01*
D02*
G37*
G36*
X2033000Y1742590D02*
X2029270D01*
Y1734270D01*
X2035590D01*
Y1740000D01*
X2035393Y1740991D01*
X2034831Y1741831D01*
X2033991Y1742393D01*
X2033000Y1742590D01*
D02*
G37*
G36*
X2026730D02*
X2023000D01*
X2022009Y1742393D01*
X2021169Y1741831D01*
X2020607Y1740991D01*
X2020410Y1740000D01*
Y1734270D01*
X2026730D01*
Y1742590D01*
D02*
G37*
G36*
X2343000Y1760648D02*
X2340838Y1760219D01*
X2339006Y1758994D01*
X2337781Y1757162D01*
X2337352Y1755000D01*
X2337781Y1752838D01*
X2339006Y1751006D01*
X2339941Y1750381D01*
Y1743624D01*
X2338000D01*
X2336852Y1743148D01*
X2336376Y1742000D01*
Y1728000D01*
X2336852Y1726852D01*
X2338000Y1726376D01*
X2348000D01*
X2349148Y1726852D01*
X2349624Y1728000D01*
Y1742000D01*
X2349148Y1743148D01*
X2348000Y1743624D01*
X2346059D01*
Y1750381D01*
X2346994Y1751006D01*
X2348219Y1752838D01*
X2348649Y1755000D01*
X2348219Y1757162D01*
X2346994Y1758994D01*
X2345162Y1760219D01*
X2343000Y1760648D01*
D02*
G37*
G36*
X2330590Y1733730D02*
X2324270D01*
Y1725410D01*
X2328000D01*
X2328991Y1725607D01*
X2329831Y1726169D01*
X2330393Y1727009D01*
X2330590Y1728000D01*
Y1733730D01*
D02*
G37*
G36*
X2321730D02*
X2315410D01*
Y1728000D01*
X2315607Y1727009D01*
X2316169Y1726169D01*
X2317009Y1725607D01*
X2318000Y1725410D01*
X2321730D01*
Y1733730D01*
D02*
G37*
G36*
X2048000Y1757648D02*
X2045838Y1757219D01*
X2044006Y1755994D01*
X2042781Y1754162D01*
X2042352Y1752000D01*
X2042781Y1749838D01*
X2044006Y1748006D01*
X2044941Y1747381D01*
Y1741624D01*
X2043000D01*
X2041852Y1741148D01*
X2041376Y1740000D01*
Y1726000D01*
X2041852Y1724852D01*
X2043000Y1724376D01*
X2053000D01*
X2054148Y1724852D01*
X2054624Y1726000D01*
Y1740000D01*
X2054148Y1741148D01*
X2053000Y1741624D01*
X2051059D01*
Y1747381D01*
X2051994Y1748006D01*
X2053219Y1749838D01*
X2053649Y1752000D01*
X2053219Y1754162D01*
X2051994Y1755994D01*
X2050162Y1757219D01*
X2048000Y1757648D01*
D02*
G37*
G36*
X2035590Y1731730D02*
X2029270D01*
Y1723410D01*
X2033000D01*
X2033991Y1723607D01*
X2034831Y1724169D01*
X2035393Y1725009D01*
X2035590Y1726000D01*
Y1731730D01*
D02*
G37*
G36*
X2026730D02*
X2020410D01*
Y1726000D01*
X2020607Y1725009D01*
X2021169Y1724169D01*
X2022009Y1723607D01*
X2023000Y1723410D01*
X2026730D01*
Y1731730D01*
D02*
G37*
G36*
X2480270Y1723396D02*
Y1719270D01*
X2484396D01*
X2484219Y1720162D01*
X2482994Y1721994D01*
X2481162Y1723219D01*
X2480270Y1723396D01*
D02*
G37*
G36*
X2477730D02*
X2476838Y1723219D01*
X2475006Y1721994D01*
X2473781Y1720162D01*
X2473604Y1719270D01*
X2477730D01*
Y1723396D01*
D02*
G37*
G36*
X2484396Y1716730D02*
X2480270D01*
Y1712604D01*
X2481162Y1712781D01*
X2482994Y1714006D01*
X2484219Y1715838D01*
X2484396Y1716730D01*
D02*
G37*
G36*
X2477730D02*
X2473604D01*
X2473781Y1715838D01*
X2475006Y1714006D01*
X2476838Y1712781D01*
X2477730Y1712604D01*
Y1716730D01*
D02*
G37*
G36*
X2107270Y1707396D02*
Y1703270D01*
X2111396D01*
X2111219Y1704162D01*
X2109994Y1705994D01*
X2108162Y1707219D01*
X2107270Y1707396D01*
D02*
G37*
G36*
X2104730D02*
X2103838Y1707219D01*
X2102006Y1705994D01*
X2100781Y1704162D01*
X2100604Y1703270D01*
X2104730D01*
Y1707396D01*
D02*
G37*
G36*
X2111396Y1700730D02*
X2107270D01*
Y1696604D01*
X2108162Y1696781D01*
X2109994Y1698006D01*
X2111219Y1699838D01*
X2111396Y1700730D01*
D02*
G37*
G36*
X2104730D02*
X2100604D01*
X2100781Y1699838D01*
X2102006Y1698006D01*
X2103838Y1696781D01*
X2104730Y1696604D01*
Y1700730D01*
D02*
G37*
G36*
X2513270Y1664396D02*
Y1660270D01*
X2517396D01*
X2517219Y1661162D01*
X2515994Y1662994D01*
X2514162Y1664219D01*
X2513270Y1664396D01*
D02*
G37*
G36*
X2510730D02*
X2509838Y1664219D01*
X2508006Y1662994D01*
X2506781Y1661162D01*
X2506604Y1660270D01*
X2510730D01*
Y1664396D01*
D02*
G37*
G36*
X2416270Y1658396D02*
Y1654270D01*
X2420396D01*
X2420219Y1655162D01*
X2418994Y1656994D01*
X2417162Y1658219D01*
X2416270Y1658396D01*
D02*
G37*
G36*
X2413730D02*
X2412838Y1658219D01*
X2411006Y1656994D01*
X2409781Y1655162D01*
X2409604Y1654270D01*
X2413730D01*
Y1658396D01*
D02*
G37*
G36*
X2517396Y1657730D02*
X2513270D01*
Y1653604D01*
X2514162Y1653781D01*
X2515994Y1655006D01*
X2517219Y1656838D01*
X2517396Y1657730D01*
D02*
G37*
G36*
X2510730D02*
X2506604D01*
X2506781Y1656838D01*
X2508006Y1655006D01*
X2509838Y1653781D01*
X2510730Y1653604D01*
Y1657730D01*
D02*
G37*
G36*
X2420396Y1651730D02*
X2416270D01*
Y1647604D01*
X2417162Y1647781D01*
X2418994Y1649006D01*
X2420219Y1650838D01*
X2420396Y1651730D01*
D02*
G37*
G36*
X2413730D02*
X2409604D01*
X2409781Y1650838D01*
X2411006Y1649006D01*
X2412838Y1647781D01*
X2413730Y1647604D01*
Y1651730D01*
D02*
G37*
G36*
X2529000Y1715648D02*
X2526838Y1715219D01*
X2525006Y1713994D01*
X2523781Y1712162D01*
X2523351Y1710000D01*
X2523781Y1707838D01*
X2525006Y1706006D01*
X2526838Y1704781D01*
X2526951Y1704759D01*
Y1657389D01*
X2525506Y1656423D01*
X2524281Y1654591D01*
X2523851Y1652429D01*
X2524281Y1650267D01*
X2525506Y1648435D01*
X2527338Y1647210D01*
X2529500Y1646781D01*
X2531662Y1647210D01*
X2533494Y1648435D01*
X2534719Y1650267D01*
X2535148Y1652429D01*
X2534719Y1654591D01*
X2533494Y1656423D01*
X2532049Y1657389D01*
Y1705374D01*
X2532994Y1706006D01*
X2534219Y1707838D01*
X2534648Y1710000D01*
X2534219Y1712162D01*
X2532994Y1713994D01*
X2531162Y1715219D01*
X2529000Y1715648D01*
D02*
G37*
G36*
X2235000Y1650648D02*
X2232838Y1650219D01*
X2231006Y1648994D01*
X2229781Y1647162D01*
X2229423Y1645361D01*
X2227995Y1645645D01*
X2225834Y1645215D01*
X2224001Y1643991D01*
X2222777Y1642158D01*
X2222347Y1639997D01*
X2222777Y1637835D01*
X2224001Y1636003D01*
X2224937Y1635378D01*
Y1577263D01*
X2112837Y1465163D01*
X2112174Y1464171D01*
X2111941Y1463000D01*
X2111941Y1463000D01*
Y1296624D01*
X2110000D01*
X2108852Y1296148D01*
X2108376Y1295000D01*
Y1281000D01*
X2108852Y1279852D01*
X2110000Y1279376D01*
X2120000D01*
X2121148Y1279852D01*
X2121624Y1281000D01*
Y1295000D01*
X2121148Y1296148D01*
X2120000Y1296624D01*
X2118059D01*
Y1461733D01*
X2230158Y1573833D01*
X2230158Y1573833D01*
X2230671Y1574600D01*
X2231747Y1574465D01*
X2231941Y1574389D01*
Y1526267D01*
X2184837Y1479163D01*
X2184174Y1478170D01*
X2183941Y1477000D01*
X2183941Y1477000D01*
Y1402624D01*
X2182000D01*
X2180852Y1402148D01*
X2180376Y1401000D01*
Y1387000D01*
X2180852Y1385852D01*
X2182000Y1385376D01*
X2192000D01*
X2193148Y1385852D01*
X2193624Y1387000D01*
Y1401000D01*
X2193148Y1402148D01*
X2192000Y1402624D01*
X2190059D01*
Y1475733D01*
X2237163Y1522837D01*
X2237826Y1523829D01*
X2238059Y1525000D01*
X2238059Y1525000D01*
Y1640381D01*
X2238994Y1641006D01*
X2240219Y1642838D01*
X2240648Y1645000D01*
X2240219Y1647162D01*
X2238994Y1648994D01*
X2237162Y1650219D01*
X2235000Y1650648D01*
D02*
G37*
G36*
X2142000Y2102648D02*
X2139838Y2102219D01*
X2138006Y2100994D01*
X2136781Y2099162D01*
X2136351Y2097000D01*
X2136781Y2094838D01*
X2138006Y2093006D01*
X2139451Y2092040D01*
Y2059000D01*
X2139645Y2058024D01*
X2140198Y2057198D01*
X2340198Y1857198D01*
X2341025Y1856645D01*
X2342000Y1856451D01*
X2418393D01*
X2418800Y1855276D01*
X2418782Y1855181D01*
X2417006Y1853994D01*
X2415782Y1852162D01*
X2415352Y1850000D01*
X2415782Y1847838D01*
X2417006Y1846006D01*
X2418451Y1845040D01*
Y1747000D01*
X2418645Y1746024D01*
X2419198Y1745198D01*
X2425691Y1738705D01*
X2425352Y1737000D01*
X2425781Y1734838D01*
X2427006Y1733006D01*
X2428838Y1731781D01*
X2431000Y1731351D01*
X2433162Y1731781D01*
X2433331Y1731895D01*
X2434451Y1731296D01*
Y1717412D01*
X2433281Y1715662D01*
X2432852Y1713500D01*
X2433281Y1711338D01*
X2434506Y1709506D01*
X2436338Y1708281D01*
X2438500Y1707852D01*
X2440662Y1708281D01*
X2442494Y1709506D01*
X2443765Y1709498D01*
X2444838Y1708781D01*
X2447000Y1708351D01*
X2449162Y1708781D01*
X2450994Y1710006D01*
X2452219Y1711838D01*
X2452648Y1714000D01*
X2452219Y1716162D01*
X2450994Y1717994D01*
X2449162Y1719219D01*
X2448549Y1719340D01*
Y1805040D01*
X2449994Y1806006D01*
X2451219Y1807838D01*
X2451649Y1810000D01*
X2451219Y1812162D01*
X2449994Y1813994D01*
X2448162Y1815219D01*
X2446000Y1815648D01*
X2443838Y1815219D01*
X2442006Y1813994D01*
X2440782Y1812162D01*
X2440352Y1810000D01*
X2440782Y1807838D01*
X2442006Y1806006D01*
X2443451Y1805040D01*
Y1719080D01*
X2442303Y1717998D01*
X2441735Y1718002D01*
X2440662Y1718719D01*
X2439549Y1718940D01*
Y1739485D01*
X2439355Y1740461D01*
X2438802Y1741288D01*
X2438549Y1741541D01*
Y1829421D01*
X2438783Y1829612D01*
X2440478Y1829362D01*
X2440822Y1828846D01*
X2441536Y1828132D01*
X2443190Y1827027D01*
X2444124Y1826640D01*
X2446075Y1826252D01*
X2446330D01*
X2446580Y1826202D01*
X2446830Y1826252D01*
X2447085D01*
X2449036Y1826640D01*
X2449970Y1827027D01*
X2451624Y1828132D01*
X2452338Y1828846D01*
X2453443Y1830500D01*
X2453830Y1831434D01*
X2454218Y1833385D01*
Y1834395D01*
X2453830Y1836346D01*
X2453443Y1837280D01*
X2452338Y1838934D01*
X2451624Y1839648D01*
X2449970Y1840753D01*
X2449036Y1841140D01*
X2447085Y1841528D01*
X2446830D01*
X2446580Y1841578D01*
X2446330Y1841528D01*
X2446075D01*
X2444124Y1841140D01*
X2443190Y1840753D01*
X2441536Y1839648D01*
X2440822Y1838934D01*
X2440478Y1838418D01*
X2438783Y1838168D01*
X2438549Y1838359D01*
Y1846040D01*
X2439994Y1847006D01*
X2441219Y1848838D01*
X2441649Y1851000D01*
X2441219Y1853162D01*
X2439994Y1854994D01*
X2439714Y1855181D01*
X2440100Y1856451D01*
X2446944D01*
X2487451Y1815944D01*
Y1683960D01*
X2486006Y1682994D01*
X2484781Y1681162D01*
X2484352Y1679000D01*
X2484781Y1676838D01*
X2486006Y1675006D01*
X2487451Y1674040D01*
Y1644960D01*
X2486006Y1643994D01*
X2484781Y1642162D01*
X2484352Y1640000D01*
X2484781Y1637838D01*
X2486006Y1636006D01*
X2487838Y1634781D01*
X2490000Y1634352D01*
X2492162Y1634781D01*
X2493994Y1636006D01*
X2495219Y1637838D01*
X2495648Y1640000D01*
X2495219Y1642162D01*
X2493994Y1643994D01*
X2492549Y1644960D01*
Y1674040D01*
X2493994Y1675006D01*
X2495219Y1676838D01*
X2495648Y1679000D01*
X2495219Y1681162D01*
X2493994Y1682994D01*
X2492549Y1683960D01*
Y1817000D01*
X2492355Y1817975D01*
X2491802Y1818802D01*
X2449802Y1860802D01*
X2448976Y1861355D01*
X2448000Y1861549D01*
X2343056D01*
X2144549Y2060056D01*
Y2092040D01*
X2145994Y2093006D01*
X2147219Y2094838D01*
X2147648Y2097000D01*
X2147219Y2099162D01*
X2145994Y2100994D01*
X2144162Y2102219D01*
X2142000Y2102648D01*
D02*
G37*
G36*
X2033000Y1639590D02*
X2029270D01*
Y1631270D01*
X2035590D01*
Y1637000D01*
X2035393Y1637991D01*
X2034831Y1638831D01*
X2033991Y1639393D01*
X2033000Y1639590D01*
D02*
G37*
G36*
X2026730D02*
X2023000D01*
X2022009Y1639393D01*
X2021169Y1638831D01*
X2020607Y1637991D01*
X2020410Y1637000D01*
Y1631270D01*
X2026730D01*
Y1639590D01*
D02*
G37*
G36*
X2166000Y1773649D02*
X2163838Y1773219D01*
X2162006Y1771994D01*
X2160782Y1770162D01*
X2160352Y1768000D01*
X2160782Y1765838D01*
X2162006Y1764006D01*
X2163187Y1763217D01*
X2163274Y1761879D01*
X2142198Y1740802D01*
X2141645Y1739975D01*
X2141451Y1739000D01*
Y1638960D01*
X2140006Y1637994D01*
X2138781Y1636162D01*
X2138351Y1634000D01*
X2138781Y1631838D01*
X2140006Y1630006D01*
X2141838Y1628781D01*
X2144000Y1628351D01*
X2146162Y1628781D01*
X2147994Y1630006D01*
X2149219Y1631838D01*
X2149648Y1634000D01*
X2149219Y1636162D01*
X2147994Y1637994D01*
X2146549Y1638960D01*
Y1737944D01*
X2167802Y1759198D01*
X2168355Y1760025D01*
X2168549Y1761000D01*
Y1763040D01*
X2169994Y1764006D01*
X2171219Y1765838D01*
X2171649Y1768000D01*
X2171219Y1770162D01*
X2169994Y1771994D01*
X2168162Y1773219D01*
X2166000Y1773649D01*
D02*
G37*
G36*
X2076000Y1756649D02*
X2073838Y1756219D01*
X2072006Y1754994D01*
X2070781Y1753162D01*
X2070352Y1751000D01*
X2070781Y1748838D01*
X2072006Y1747006D01*
X2072941Y1746381D01*
Y1709267D01*
X2045837Y1682163D01*
X2045174Y1681171D01*
X2044941Y1680000D01*
X2044941Y1680000D01*
Y1638624D01*
X2043000D01*
X2041852Y1638148D01*
X2041376Y1637000D01*
Y1623000D01*
X2041852Y1621852D01*
X2043000Y1621376D01*
X2053000D01*
X2054148Y1621852D01*
X2054624Y1623000D01*
Y1637000D01*
X2054148Y1638148D01*
X2053000Y1638624D01*
X2051059D01*
Y1678733D01*
X2078163Y1705837D01*
X2078163Y1705837D01*
X2078826Y1706830D01*
X2079059Y1708000D01*
Y1746381D01*
X2079994Y1747006D01*
X2081219Y1748838D01*
X2081649Y1751000D01*
X2081219Y1753162D01*
X2079994Y1754994D01*
X2078162Y1756219D01*
X2076000Y1756649D01*
D02*
G37*
G36*
X2035590Y1628730D02*
X2029270D01*
Y1620410D01*
X2033000D01*
X2033991Y1620607D01*
X2034831Y1621169D01*
X2035393Y1622009D01*
X2035590Y1623000D01*
Y1628730D01*
D02*
G37*
G36*
X2026730D02*
X2020410D01*
Y1623000D01*
X2020607Y1622009D01*
X2021169Y1621169D01*
X2022009Y1620607D01*
X2023000Y1620410D01*
X2026730D01*
Y1628730D01*
D02*
G37*
G36*
X2166000Y1701649D02*
X2163838Y1701219D01*
X2162006Y1699994D01*
X2160782Y1698162D01*
X2160352Y1696000D01*
X2160782Y1693838D01*
X2162006Y1692006D01*
X2162431Y1691722D01*
Y1630278D01*
X2162006Y1629994D01*
X2160782Y1628162D01*
X2160352Y1626000D01*
X2160782Y1623838D01*
X2162006Y1622006D01*
X2163838Y1620781D01*
X2166000Y1620352D01*
X2168162Y1620781D01*
X2169994Y1622006D01*
X2171219Y1623838D01*
X2171649Y1626000D01*
X2171219Y1628162D01*
X2169994Y1629994D01*
X2169569Y1630278D01*
Y1691722D01*
X2169994Y1692006D01*
X2171219Y1693838D01*
X2171649Y1696000D01*
X2171219Y1698162D01*
X2169994Y1699994D01*
X2168162Y1701219D01*
X2166000Y1701649D01*
D02*
G37*
G36*
X2362000Y1626590D02*
X2358270D01*
Y1618270D01*
X2364590D01*
Y1624000D01*
X2364393Y1624991D01*
X2363831Y1625831D01*
X2362991Y1626393D01*
X2362000Y1626590D01*
D02*
G37*
G36*
X2355730D02*
X2352000D01*
X2351009Y1626393D01*
X2350169Y1625831D01*
X2349607Y1624991D01*
X2349410Y1624000D01*
Y1618270D01*
X2355730D01*
Y1626590D01*
D02*
G37*
G36*
X2377000Y1669648D02*
X2374838Y1669219D01*
X2373006Y1667994D01*
X2371781Y1666162D01*
X2371351Y1664000D01*
X2371781Y1661838D01*
X2373006Y1660006D01*
X2373941Y1659381D01*
Y1625624D01*
X2372000D01*
X2370852Y1625148D01*
X2370376Y1624000D01*
Y1610000D01*
X2370852Y1608852D01*
X2372000Y1608376D01*
X2382000D01*
X2383148Y1608852D01*
X2383624Y1610000D01*
Y1624000D01*
X2383148Y1625148D01*
X2382000Y1625624D01*
X2380059D01*
Y1659381D01*
X2380994Y1660006D01*
X2382219Y1661838D01*
X2382648Y1664000D01*
X2382219Y1666162D01*
X2380994Y1667994D01*
X2379162Y1669219D01*
X2377000Y1669648D01*
D02*
G37*
G36*
X2364590Y1615730D02*
X2358270D01*
Y1607410D01*
X2362000D01*
X2362991Y1607607D01*
X2363831Y1608169D01*
X2364393Y1609009D01*
X2364590Y1610000D01*
Y1615730D01*
D02*
G37*
G36*
X2355730D02*
X2349410D01*
Y1610000D01*
X2349607Y1609009D01*
X2350169Y1608169D01*
X2351009Y1607607D01*
X2352000Y1607410D01*
X2355730D01*
Y1615730D01*
D02*
G37*
G36*
X2868000Y1806624D02*
X2858000D01*
X2856852Y1806148D01*
X2856376Y1805000D01*
Y1791000D01*
X2856852Y1789852D01*
X2858000Y1789376D01*
X2859941D01*
Y1596619D01*
X2859006Y1595994D01*
X2857781Y1594162D01*
X2857351Y1592000D01*
X2857781Y1589838D01*
X2859006Y1588006D01*
X2860838Y1586781D01*
X2863000Y1586351D01*
X2865162Y1586781D01*
X2866994Y1588006D01*
X2868218Y1589838D01*
X2868648Y1592000D01*
X2868218Y1594162D01*
X2866994Y1595994D01*
X2866059Y1596619D01*
Y1789376D01*
X2868000D01*
X2869148Y1789852D01*
X2869624Y1791000D01*
Y1805000D01*
X2869148Y1806148D01*
X2868000Y1806624D01*
D02*
G37*
G36*
X2733000D02*
X2723000D01*
X2721852Y1806148D01*
X2721376Y1805000D01*
Y1791000D01*
X2721852Y1789852D01*
X2723000Y1789376D01*
X2726941D01*
Y1591619D01*
X2726006Y1590994D01*
X2724781Y1589162D01*
X2724352Y1587000D01*
X2724781Y1584838D01*
X2726006Y1583006D01*
X2727838Y1581781D01*
X2730000Y1581351D01*
X2732162Y1581781D01*
X2733994Y1583006D01*
X2735219Y1584838D01*
X2735648Y1587000D01*
X2735219Y1589162D01*
X2733994Y1590994D01*
X2733059Y1591619D01*
Y1789401D01*
X2734148Y1789852D01*
X2734624Y1791000D01*
Y1805000D01*
X2734148Y1806148D01*
X2733000Y1806624D01*
D02*
G37*
G36*
X2581000Y1805624D02*
X2571000D01*
X2569852Y1805148D01*
X2569377Y1804000D01*
Y1790000D01*
X2569852Y1788852D01*
X2571000Y1788376D01*
X2581000D01*
X2582148Y1788852D01*
X2582624Y1790000D01*
Y1793941D01*
X2609733D01*
X2635941Y1767733D01*
Y1590619D01*
X2635006Y1589994D01*
X2633781Y1588162D01*
X2633351Y1586000D01*
X2633781Y1583838D01*
X2635006Y1582006D01*
X2636838Y1580781D01*
X2639000Y1580352D01*
X2641161Y1580781D01*
X2642994Y1582006D01*
X2644219Y1583838D01*
X2644648Y1586000D01*
X2644219Y1588162D01*
X2642994Y1589994D01*
X2642059Y1590619D01*
Y1769000D01*
X2641826Y1770170D01*
X2641163Y1771163D01*
X2641163Y1771163D01*
X2613163Y1799163D01*
X2612170Y1799826D01*
X2611000Y1800059D01*
X2611000Y1800059D01*
X2582624D01*
Y1804000D01*
X2582148Y1805148D01*
X2581000Y1805624D01*
D02*
G37*
G36*
X2849000Y1580590D02*
X2845270D01*
Y1572270D01*
X2851590D01*
Y1578000D01*
X2851393Y1578991D01*
X2850831Y1579831D01*
X2849991Y1580393D01*
X2849000Y1580590D01*
D02*
G37*
G36*
X2842730D02*
X2839000D01*
X2838009Y1580393D01*
X2837169Y1579831D01*
X2836607Y1578991D01*
X2836410Y1578000D01*
Y1572270D01*
X2842730D01*
Y1580590D01*
D02*
G37*
G36*
X2717000D02*
X2713270D01*
Y1572270D01*
X2719590D01*
Y1578000D01*
X2719393Y1578991D01*
X2718831Y1579831D01*
X2717991Y1580393D01*
X2717000Y1580590D01*
D02*
G37*
G36*
X2710730D02*
X2707000D01*
X2706009Y1580393D01*
X2705169Y1579831D01*
X2704608Y1578991D01*
X2704410Y1578000D01*
Y1572270D01*
X2710730D01*
Y1580590D01*
D02*
G37*
G36*
X2851590Y1569730D02*
X2845270D01*
Y1561410D01*
X2849000D01*
X2849991Y1561607D01*
X2850831Y1562169D01*
X2851393Y1563009D01*
X2851590Y1564000D01*
Y1569730D01*
D02*
G37*
G36*
X2842730D02*
X2836410D01*
Y1564000D01*
X2836607Y1563009D01*
X2837169Y1562169D01*
X2838009Y1561607D01*
X2839000Y1561410D01*
X2842730D01*
Y1569730D01*
D02*
G37*
G36*
X2719590Y1569730D02*
X2713270D01*
Y1561410D01*
X2717000D01*
X2717991Y1561607D01*
X2718831Y1562169D01*
X2719393Y1563009D01*
X2719590Y1564000D01*
Y1569730D01*
D02*
G37*
G36*
X2710730D02*
X2704410D01*
Y1564000D01*
X2704608Y1563009D01*
X2705169Y1562169D01*
X2706009Y1561607D01*
X2707000Y1561410D01*
X2710730D01*
Y1569730D01*
D02*
G37*
G36*
X2737000Y1579624D02*
X2727000D01*
X2725852Y1579148D01*
X2725376Y1578000D01*
Y1564000D01*
X2725852Y1562852D01*
X2727000Y1562376D01*
X2728941D01*
Y1550619D01*
X2728006Y1549994D01*
X2726781Y1548162D01*
X2726352Y1546000D01*
X2726781Y1543838D01*
X2728006Y1542006D01*
X2729838Y1540781D01*
X2732000Y1540352D01*
X2734162Y1540781D01*
X2735994Y1542006D01*
X2737219Y1543838D01*
X2737649Y1546000D01*
X2737219Y1548162D01*
X2735994Y1549994D01*
X2735059Y1550619D01*
Y1562376D01*
X2737000D01*
X2738148Y1562852D01*
X2738624Y1564000D01*
Y1578000D01*
X2738148Y1579148D01*
X2737000Y1579624D01*
D02*
G37*
G36*
X1966000Y1542590D02*
X1962270D01*
Y1534270D01*
X1968590D01*
Y1540000D01*
X1968393Y1540991D01*
X1967831Y1541831D01*
X1966991Y1542393D01*
X1966000Y1542590D01*
D02*
G37*
G36*
X1959730D02*
X1956000D01*
X1955009Y1542393D01*
X1954169Y1541831D01*
X1953607Y1540991D01*
X1953410Y1540000D01*
Y1534270D01*
X1959730D01*
Y1542590D01*
D02*
G37*
G36*
X2869000Y1579624D02*
X2859000D01*
X2857852Y1579148D01*
X2857376Y1578000D01*
Y1564000D01*
X2857852Y1562852D01*
X2859000Y1562376D01*
X2861941D01*
Y1538619D01*
X2861006Y1537994D01*
X2859781Y1536162D01*
X2859352Y1534000D01*
X2859781Y1531838D01*
X2861006Y1530006D01*
X2862838Y1528781D01*
X2865000Y1528351D01*
X2867162Y1528781D01*
X2868994Y1530006D01*
X2870219Y1531838D01*
X2870648Y1534000D01*
X2870219Y1536162D01*
X2868994Y1537994D01*
X2868059Y1538619D01*
Y1562376D01*
X2869000D01*
X2870148Y1562852D01*
X2870623Y1564000D01*
Y1578000D01*
X2870148Y1579148D01*
X2869000Y1579624D01*
D02*
G37*
G36*
X1968590Y1531730D02*
X1962270D01*
Y1523410D01*
X1966000D01*
X1966991Y1523607D01*
X1967831Y1524169D01*
X1968393Y1525009D01*
X1968590Y1526000D01*
Y1531730D01*
D02*
G37*
G36*
X1959730D02*
X1953410D01*
Y1526000D01*
X1953607Y1525009D01*
X1954169Y1524169D01*
X1955009Y1523607D01*
X1956000Y1523410D01*
X1959730D01*
Y1531730D01*
D02*
G37*
G36*
X2484000Y1509590D02*
X2480270D01*
Y1501270D01*
X2486590D01*
Y1507000D01*
X2486393Y1507991D01*
X2485831Y1508831D01*
X2484991Y1509393D01*
X2484000Y1509590D01*
D02*
G37*
G36*
X2477730D02*
X2474000D01*
X2473009Y1509393D01*
X2472169Y1508831D01*
X2471607Y1507991D01*
X2471410Y1507000D01*
Y1501270D01*
X2477730D01*
Y1509590D01*
D02*
G37*
G36*
X2247000Y1508590D02*
X2243270D01*
Y1500270D01*
X2249590D01*
Y1506000D01*
X2249393Y1506991D01*
X2248831Y1507831D01*
X2247991Y1508393D01*
X2247000Y1508590D01*
D02*
G37*
G36*
X2240730D02*
X2237000D01*
X2236009Y1508393D01*
X2235169Y1507831D01*
X2234607Y1506991D01*
X2234410Y1506000D01*
Y1500270D01*
X2240730D01*
Y1508590D01*
D02*
G37*
G36*
X2499000Y1617648D02*
X2496838Y1617219D01*
X2495006Y1615994D01*
X2493781Y1614162D01*
X2493351Y1612000D01*
X2493781Y1609838D01*
X2495006Y1608006D01*
X2495941Y1607381D01*
Y1508624D01*
X2494000D01*
X2492852Y1508148D01*
X2492376Y1507000D01*
Y1493000D01*
X2492852Y1491852D01*
X2494000Y1491376D01*
X2504000D01*
X2505148Y1491852D01*
X2505624Y1493000D01*
Y1507000D01*
X2505148Y1508148D01*
X2504000Y1508624D01*
X2502059D01*
Y1607381D01*
X2502994Y1608006D01*
X2504219Y1609838D01*
X2504648Y1612000D01*
X2504219Y1614162D01*
X2502994Y1615994D01*
X2501162Y1617219D01*
X2499000Y1617648D01*
D02*
G37*
G36*
X2486590Y1498730D02*
X2480270D01*
Y1490410D01*
X2484000D01*
X2484991Y1490607D01*
X2485831Y1491169D01*
X2486393Y1492009D01*
X2486590Y1493000D01*
Y1498730D01*
D02*
G37*
G36*
X2477730D02*
X2471410D01*
Y1493000D01*
X2471607Y1492009D01*
X2472169Y1491169D01*
X2473009Y1490607D01*
X2474000Y1490410D01*
X2477730D01*
Y1498730D01*
D02*
G37*
G36*
X2261000Y1650648D02*
X2258838Y1650219D01*
X2257006Y1648994D01*
X2255781Y1647162D01*
X2255352Y1645000D01*
X2255781Y1642838D01*
X2257006Y1641006D01*
X2257941Y1640381D01*
Y1507624D01*
X2257000D01*
X2255852Y1507148D01*
X2255376Y1506000D01*
Y1492000D01*
X2255852Y1490852D01*
X2257000Y1490376D01*
X2267000D01*
X2268148Y1490852D01*
X2268624Y1492000D01*
Y1506000D01*
X2268148Y1507148D01*
X2267000Y1507624D01*
X2264059D01*
Y1640381D01*
X2264994Y1641006D01*
X2266219Y1642838D01*
X2266649Y1645000D01*
X2266219Y1647162D01*
X2264994Y1648994D01*
X2263162Y1650219D01*
X2261000Y1650648D01*
D02*
G37*
G36*
X2249590Y1497730D02*
X2243270D01*
Y1489410D01*
X2247000D01*
X2247991Y1489607D01*
X2248831Y1490169D01*
X2249393Y1491009D01*
X2249590Y1492000D01*
Y1497730D01*
D02*
G37*
G36*
X2240730D02*
X2234410D01*
Y1492000D01*
X2234607Y1491009D01*
X2235169Y1490169D01*
X2236009Y1489607D01*
X2237000Y1489410D01*
X2240730D01*
Y1497730D01*
D02*
G37*
G36*
X2477510Y1469216D02*
X2477343Y1469183D01*
X2477172Y1469194D01*
X2474561Y1468850D01*
X2474241Y1468741D01*
X2473908Y1468675D01*
X2471476Y1467668D01*
X2471194Y1467479D01*
X2470890Y1467330D01*
X2468801Y1465727D01*
X2468578Y1465472D01*
X2468323Y1465249D01*
X2466720Y1463160D01*
X2466571Y1462856D01*
X2466382Y1462574D01*
X2465375Y1460142D01*
X2465309Y1459809D01*
X2465200Y1459489D01*
X2464856Y1456878D01*
X2464878Y1456540D01*
X2464856Y1456202D01*
X2465200Y1453591D01*
X2465309Y1453271D01*
X2465375Y1452938D01*
X2466382Y1450506D01*
X2466571Y1450224D01*
X2466720Y1449920D01*
X2468323Y1447831D01*
X2468578Y1447608D01*
X2468801Y1447353D01*
X2470890Y1445750D01*
X2471194Y1445601D01*
X2471476Y1445412D01*
X2473908Y1444405D01*
X2474241Y1444339D01*
X2474561Y1444230D01*
X2477172Y1443886D01*
X2477343Y1443897D01*
X2477510Y1443864D01*
X2477677Y1443897D01*
X2477848Y1443886D01*
X2480459Y1444230D01*
X2480779Y1444339D01*
X2481112Y1444405D01*
X2483544Y1445412D01*
X2483826Y1445601D01*
X2484130Y1445750D01*
X2486219Y1447353D01*
X2486442Y1447608D01*
X2486697Y1447831D01*
X2488300Y1449920D01*
X2488449Y1450224D01*
X2488638Y1450506D01*
X2489645Y1452938D01*
X2489711Y1453271D01*
X2489820Y1453591D01*
X2490164Y1456202D01*
X2490142Y1456540D01*
X2490164Y1456878D01*
X2489820Y1459489D01*
X2489711Y1459809D01*
X2489645Y1460142D01*
X2488638Y1462574D01*
X2488449Y1462856D01*
X2488300Y1463160D01*
X2486697Y1465249D01*
X2486442Y1465472D01*
X2486219Y1465727D01*
X2484130Y1467330D01*
X2483826Y1467479D01*
X2483544Y1467668D01*
X2481112Y1468675D01*
X2480779Y1468741D01*
X2480459Y1468850D01*
X2477848Y1469194D01*
X2477677Y1469183D01*
X2477510Y1469216D01*
D02*
G37*
G36*
X1887000Y1425590D02*
X1883270D01*
Y1417270D01*
X1889590D01*
Y1423000D01*
X1889393Y1423991D01*
X1888831Y1424831D01*
X1887991Y1425393D01*
X1887000Y1425590D01*
D02*
G37*
G36*
X1880730D02*
X1877000D01*
X1876009Y1425393D01*
X1875169Y1424831D01*
X1874607Y1423991D01*
X1874410Y1423000D01*
Y1417270D01*
X1880730D01*
Y1425590D01*
D02*
G37*
G36*
X1889590Y1414730D02*
X1883270D01*
Y1406410D01*
X1887000D01*
X1887991Y1406607D01*
X1888831Y1407169D01*
X1889393Y1408009D01*
X1889590Y1409000D01*
Y1414730D01*
D02*
G37*
G36*
X1880730D02*
X1874410D01*
Y1409000D01*
X1874607Y1408009D01*
X1875169Y1407169D01*
X1876009Y1406607D01*
X1877000Y1406410D01*
X1880730D01*
Y1414730D01*
D02*
G37*
G36*
X1849630Y1404036D02*
Y1399910D01*
X1853756D01*
X1853579Y1400802D01*
X1852354Y1402634D01*
X1850522Y1403859D01*
X1849630Y1404036D01*
D02*
G37*
G36*
X1847090D02*
X1846198Y1403859D01*
X1844366Y1402634D01*
X1843141Y1400802D01*
X1842964Y1399910D01*
X1847090D01*
Y1404036D01*
D02*
G37*
G36*
X2172000Y1403590D02*
X2168270D01*
Y1395270D01*
X2174590D01*
Y1401000D01*
X2174393Y1401991D01*
X2173831Y1402831D01*
X2172991Y1403393D01*
X2172000Y1403590D01*
D02*
G37*
G36*
X2165730D02*
X2162000D01*
X2161009Y1403393D01*
X2160169Y1402831D01*
X2159607Y1401991D01*
X2159410Y1401000D01*
Y1395270D01*
X2165730D01*
Y1403590D01*
D02*
G37*
G36*
X2555000Y1402590D02*
X2551270D01*
Y1394270D01*
X2557590D01*
Y1400000D01*
X2557393Y1400991D01*
X2556831Y1401831D01*
X2555991Y1402393D01*
X2555000Y1402590D01*
D02*
G37*
G36*
X2548730D02*
X2545000D01*
X2544009Y1402393D01*
X2543169Y1401831D01*
X2542607Y1400991D01*
X2542410Y1400000D01*
Y1394270D01*
X2548730D01*
Y1402590D01*
D02*
G37*
G36*
X1853756Y1397370D02*
X1849630D01*
Y1393244D01*
X1850522Y1393421D01*
X1852354Y1394646D01*
X1853579Y1396478D01*
X1853756Y1397370D01*
D02*
G37*
G36*
X1847090D02*
X1842964D01*
X1843141Y1396478D01*
X1844366Y1394646D01*
X1846198Y1393421D01*
X1847090Y1393244D01*
Y1397370D01*
D02*
G37*
G36*
X2174590Y1392730D02*
X2168270D01*
Y1384410D01*
X2172000D01*
X2172991Y1384607D01*
X2173831Y1385169D01*
X2174393Y1386009D01*
X2174590Y1387000D01*
Y1392730D01*
D02*
G37*
G36*
X2165730D02*
X2159410D01*
Y1387000D01*
X2159607Y1386009D01*
X2160169Y1385169D01*
X2161009Y1384607D01*
X2162000Y1384410D01*
X2165730D01*
Y1392730D01*
D02*
G37*
G36*
X2554000Y1608649D02*
X2551838Y1608219D01*
X2550006Y1606994D01*
X2548781Y1605162D01*
X2548351Y1603000D01*
X2548781Y1600838D01*
X2550006Y1599006D01*
X2550941Y1598381D01*
Y1439000D01*
X2550941Y1439000D01*
X2551174Y1437829D01*
X2551837Y1436837D01*
X2566941Y1421733D01*
Y1401624D01*
X2565000D01*
X2563852Y1401148D01*
X2563376Y1400000D01*
Y1386000D01*
X2563852Y1384852D01*
X2565000Y1384376D01*
X2575000D01*
X2576148Y1384852D01*
X2576624Y1386000D01*
Y1400000D01*
X2576148Y1401148D01*
X2575000Y1401624D01*
X2573059D01*
Y1423000D01*
X2572826Y1424171D01*
X2572163Y1425163D01*
X2572163Y1425163D01*
X2557059Y1440267D01*
Y1598381D01*
X2557994Y1599006D01*
X2559219Y1600838D01*
X2559648Y1603000D01*
X2559219Y1605162D01*
X2557994Y1606994D01*
X2556162Y1608219D01*
X2554000Y1608649D01*
D02*
G37*
G36*
X2557590Y1391730D02*
X2551270D01*
Y1383410D01*
X2555000D01*
X2555991Y1383607D01*
X2556831Y1384169D01*
X2557393Y1385009D01*
X2557590Y1386000D01*
Y1391730D01*
D02*
G37*
G36*
X2548730D02*
X2542410D01*
Y1386000D01*
X2542607Y1385009D01*
X2543169Y1384169D01*
X2544009Y1383607D01*
X2545000Y1383410D01*
X2548730D01*
Y1391730D01*
D02*
G37*
G36*
X1830270Y1386396D02*
Y1382270D01*
X1834396D01*
X1834219Y1383162D01*
X1832994Y1384994D01*
X1831162Y1386219D01*
X1830270Y1386396D01*
D02*
G37*
G36*
X1827730D02*
X1826838Y1386219D01*
X1825006Y1384994D01*
X1823781Y1383162D01*
X1823604Y1382270D01*
X1827730D01*
Y1386396D01*
D02*
G37*
G36*
X1834396Y1379730D02*
X1830270D01*
Y1375604D01*
X1831162Y1375781D01*
X1832994Y1377006D01*
X1834219Y1378838D01*
X1834396Y1379730D01*
D02*
G37*
G36*
X1827730D02*
X1823604D01*
X1823781Y1378838D01*
X1825006Y1377006D01*
X1826838Y1375781D01*
X1827730Y1375604D01*
Y1379730D01*
D02*
G37*
G36*
X1849630Y1369756D02*
Y1365630D01*
X1853756D01*
X1853579Y1366522D01*
X1852354Y1368354D01*
X1850522Y1369579D01*
X1849630Y1369756D01*
D02*
G37*
G36*
X1847090D02*
X1846198Y1369579D01*
X1844366Y1368354D01*
X1843141Y1366522D01*
X1842964Y1365630D01*
X1847090D01*
Y1369756D01*
D02*
G37*
G36*
X1853756Y1363090D02*
X1849630D01*
Y1358964D01*
X1850522Y1359141D01*
X1852354Y1360366D01*
X1853579Y1362198D01*
X1853756Y1363090D01*
D02*
G37*
G36*
X1847090D02*
X1842964D01*
X1843141Y1362198D01*
X1844366Y1360366D01*
X1846198Y1359141D01*
X1847090Y1358964D01*
Y1363090D01*
D02*
G37*
G36*
X1807000Y1310590D02*
X1803270D01*
Y1302270D01*
X1809590D01*
Y1308000D01*
X1809393Y1308991D01*
X1808831Y1309831D01*
X1807991Y1310393D01*
X1807000Y1310590D01*
D02*
G37*
G36*
X1800730D02*
X1797000D01*
X1796009Y1310393D01*
X1795169Y1309831D01*
X1794607Y1308991D01*
X1794410Y1308000D01*
Y1302270D01*
X1800730D01*
Y1310590D01*
D02*
G37*
G36*
X1822000Y1325648D02*
X1819838Y1325219D01*
X1818006Y1323994D01*
X1816781Y1322162D01*
X1816351Y1320000D01*
X1816781Y1317838D01*
X1818006Y1316006D01*
X1818941Y1315381D01*
Y1309624D01*
X1817000D01*
X1815852Y1309148D01*
X1815376Y1308000D01*
Y1294000D01*
X1815852Y1292852D01*
X1817000Y1292376D01*
X1827000D01*
X1828148Y1292852D01*
X1828624Y1294000D01*
Y1308000D01*
X1828148Y1309148D01*
X1827000Y1309624D01*
X1825059D01*
Y1315381D01*
X1825994Y1316006D01*
X1827218Y1317838D01*
X1827648Y1320000D01*
X1827218Y1322162D01*
X1825994Y1323994D01*
X1824162Y1325219D01*
X1822000Y1325648D01*
D02*
G37*
G36*
X1809590Y1299730D02*
X1803270D01*
Y1291410D01*
X1807000D01*
X1807991Y1291607D01*
X1808831Y1292169D01*
X1809393Y1293009D01*
X1809590Y1294000D01*
Y1299730D01*
D02*
G37*
G36*
X1800730D02*
X1794410D01*
Y1294000D01*
X1794607Y1293009D01*
X1795169Y1292169D01*
X1796009Y1291607D01*
X1797000Y1291410D01*
X1800730D01*
Y1299730D01*
D02*
G37*
G36*
X2100000Y1297590D02*
X2096270D01*
Y1289270D01*
X2102590D01*
Y1295000D01*
X2102393Y1295991D01*
X2101831Y1296831D01*
X2100991Y1297393D01*
X2100000Y1297590D01*
D02*
G37*
G36*
X2093730D02*
X2090000D01*
X2089009Y1297393D01*
X2088169Y1296831D01*
X2087607Y1295991D01*
X2087410Y1295000D01*
Y1289270D01*
X2093730D01*
Y1297590D01*
D02*
G37*
G36*
X2627000Y1289590D02*
X2623270D01*
Y1281270D01*
X2629590D01*
Y1287000D01*
X2629393Y1287991D01*
X2628831Y1288831D01*
X2627991Y1289393D01*
X2627000Y1289590D01*
D02*
G37*
G36*
X2620730D02*
X2617000D01*
X2616009Y1289393D01*
X2615169Y1288831D01*
X2614608Y1287991D01*
X2614410Y1287000D01*
Y1281270D01*
X2620730D01*
Y1289590D01*
D02*
G37*
G36*
X2102590Y1286730D02*
X2096270D01*
Y1278410D01*
X2100000D01*
X2100991Y1278607D01*
X2101831Y1279169D01*
X2102393Y1280009D01*
X2102590Y1281000D01*
Y1286730D01*
D02*
G37*
G36*
X2093730D02*
X2087410D01*
Y1281000D01*
X2087607Y1280009D01*
X2088169Y1279169D01*
X2089009Y1278607D01*
X2090000Y1278410D01*
X2093730D01*
Y1286730D01*
D02*
G37*
G36*
X2571000Y1596649D02*
X2568839Y1596219D01*
X2567006Y1594994D01*
X2565781Y1593162D01*
X2565352Y1591000D01*
X2565781Y1588838D01*
X2567006Y1587006D01*
X2567941Y1586381D01*
Y1465000D01*
X2567941Y1465000D01*
X2568174Y1463829D01*
X2568837Y1462837D01*
X2638941Y1392733D01*
Y1288624D01*
X2637000D01*
X2635852Y1288148D01*
X2635376Y1287000D01*
Y1273000D01*
X2635852Y1271852D01*
X2637000Y1271376D01*
X2647000D01*
X2648148Y1271852D01*
X2648624Y1273000D01*
Y1287000D01*
X2648148Y1288148D01*
X2647000Y1288624D01*
X2645059D01*
Y1394000D01*
X2644826Y1395170D01*
X2644163Y1396163D01*
X2644163Y1396163D01*
X2574059Y1466267D01*
Y1586381D01*
X2574994Y1587006D01*
X2576219Y1588838D01*
X2576649Y1591000D01*
X2576219Y1593162D01*
X2574994Y1594994D01*
X2573162Y1596219D01*
X2571000Y1596649D01*
D02*
G37*
G36*
X2629590Y1278730D02*
X2623270D01*
Y1270410D01*
X2627000D01*
X2627991Y1270607D01*
X2628831Y1271169D01*
X2629393Y1272009D01*
X2629590Y1273000D01*
Y1278730D01*
D02*
G37*
G36*
X2620730D02*
X2614410D01*
Y1273000D01*
X2614608Y1272009D01*
X2615169Y1271169D01*
X2616009Y1270607D01*
X2617000Y1270410D01*
X2620730D01*
Y1278730D01*
D02*
G37*
%LPD*%
D10*
X2732000Y1571000D02*
D03*
X2712000D02*
D03*
X2864000D02*
D03*
X2844000D02*
D03*
X2728000Y1798000D02*
D03*
X2708000D02*
D03*
X2863000D02*
D03*
X2843000D02*
D03*
X2642000Y1280000D02*
D03*
X2622000D02*
D03*
X2576000Y1797000D02*
D03*
X2556000D02*
D03*
X2499000Y1500000D02*
D03*
X2479000D02*
D03*
X2570000Y1393000D02*
D03*
X2550000D02*
D03*
X2187000Y1394000D02*
D03*
X2167000D02*
D03*
X2115000Y1288000D02*
D03*
X2095000D02*
D03*
X2377000Y1617000D02*
D03*
X2357000D02*
D03*
X2262000Y1499000D02*
D03*
X2242000D02*
D03*
X2266000Y1851000D02*
D03*
X2246000D02*
D03*
X2343000Y1735000D02*
D03*
X2323000D02*
D03*
X2111000Y2084000D02*
D03*
X2091000D02*
D03*
X2191000Y1964000D02*
D03*
X2171000D02*
D03*
X1895000Y1965000D02*
D03*
X1875000D02*
D03*
X1819000Y2082000D02*
D03*
X1799000D02*
D03*
X2048000Y1733000D02*
D03*
X2028000D02*
D03*
X1975000Y1845000D02*
D03*
X1955000D02*
D03*
X1981000Y1533000D02*
D03*
X1961000D02*
D03*
X2048000Y1630000D02*
D03*
X2028000D02*
D03*
X1822000Y1301000D02*
D03*
X1802000D02*
D03*
X1902000Y1416000D02*
D03*
X1882000D02*
D03*
D14*
X2529000Y1710000D02*
X2529500Y1709500D01*
Y1652429D02*
Y1709500D01*
X2503000Y1767000D02*
Y1787000D01*
X2490000Y1640000D02*
Y1679000D01*
X2172000Y1757000D02*
X2175000D01*
X2163000Y1748000D02*
X2172000Y1757000D01*
X2163000Y1721000D02*
Y1748000D01*
X2166000Y1761000D02*
Y1768000D01*
X2142000Y2059000D02*
Y2097000D01*
Y2059000D02*
X2342000Y1859000D01*
X2448000D01*
X2490000Y1817000D01*
Y1679000D02*
Y1817000D01*
X2436000Y1740485D02*
Y1851000D01*
Y1740485D02*
X2437000Y1739485D01*
Y1715000D02*
Y1739485D01*
Y1715000D02*
X2438500Y1713500D01*
X2421000Y1747000D02*
Y1850000D01*
Y1747000D02*
X2431000Y1737000D01*
X2446000Y1715000D02*
X2447000Y1714000D01*
X2446000Y1715000D02*
Y1810000D01*
X2144000Y1739000D02*
X2166000Y1761000D01*
X2144000Y1634000D02*
Y1739000D01*
D15*
X2499000Y1500000D02*
Y1612000D01*
X2194996Y1750997D02*
Y1752803D01*
X2196000Y1753808D01*
X2181996Y1582996D02*
Y1750997D01*
X2015000Y1416000D02*
X2181996Y1582996D01*
X2195500Y1754308D02*
X2196000Y1753808D01*
X2076000Y1708000D02*
Y1751000D01*
X2048000Y1680000D02*
X2076000Y1708000D01*
X2048000Y1630000D02*
Y1680000D01*
Y1794000D02*
X2052000Y1798000D01*
X2570000Y1393000D02*
Y1423000D01*
X2554000Y1439000D02*
X2570000Y1423000D01*
X2554000Y1439000D02*
Y1603000D01*
X2642000Y1280000D02*
Y1394000D01*
X2571000Y1465000D02*
X2642000Y1394000D01*
X2571000Y1465000D02*
Y1591000D01*
X2187000Y1394000D02*
Y1477000D01*
X2235000Y1525000D01*
Y1645000D01*
X2261000Y1500000D02*
X2262000Y1499000D01*
X2261000Y1500000D02*
Y1645000D01*
X2377000Y1617000D02*
Y1664000D01*
X2576000Y1797000D02*
X2611000D01*
X2639000Y1769000D01*
Y1586000D02*
Y1769000D01*
X2728000Y1798000D02*
X2730000Y1796000D01*
Y1587000D02*
Y1796000D01*
X2863000Y1798000D02*
X2863000Y1798000D01*
X2863000Y1592000D02*
Y1798000D01*
X2732000Y1546000D02*
Y1571000D01*
X2864000D02*
X2865000Y1570000D01*
Y1534000D02*
Y1570000D01*
X2343000Y1735000D02*
X2343000Y1735000D01*
X2343000Y1735000D02*
Y1755000D01*
X2266000Y1837000D02*
Y1851000D01*
X2241250Y1812250D02*
X2266000Y1837000D01*
X2241250Y1756750D02*
Y1812250D01*
X2234750Y1750250D02*
Y1826250D01*
Y1750250D02*
X2235000Y1750000D01*
X2191000Y1870000D02*
X2234750Y1826250D01*
X2191000Y1870000D02*
Y1964000D01*
X2221500Y1750500D02*
X2222000Y1750000D01*
X2208500Y1751000D02*
X2209000Y1750500D01*
X2048000Y1733000D02*
Y1752000D01*
X1981000Y1533000D02*
Y1719000D01*
X2044000Y1782000D01*
X1902000Y1416000D02*
X2015000D01*
X1822000Y1301000D02*
X1822000Y1301000D01*
X1822000Y1301000D02*
Y1320000D01*
X2111000Y1937000D02*
Y2084000D01*
Y1937000D02*
X2228000Y1820000D01*
Y1757000D02*
Y1820000D01*
X1819000Y2082000D02*
X1952000D01*
X2221500Y1812500D01*
Y1750500D02*
Y1812500D01*
X1895000Y1965000D02*
X2055000D01*
X2215000Y1805000D01*
Y1757000D02*
Y1805000D01*
X1975000Y1845000D02*
X2161000D01*
X2208500Y1797500D01*
Y1751000D02*
Y1797500D01*
X2052000Y1798000D02*
X2194000D01*
X2202000Y1790000D01*
Y1757000D02*
Y1790000D01*
X2076000D02*
X2190000D01*
X2195500Y1784500D01*
Y1754308D02*
Y1784500D01*
X2044000Y1782000D02*
X2184000D01*
X2189000Y1777000D01*
Y1757000D02*
Y1777000D01*
X2115000Y1288000D02*
Y1463000D01*
X2227995Y1575996D01*
Y1639997D01*
D16*
X2166000Y1626000D02*
Y1696000D01*
X2114000Y1774000D02*
X2138000D01*
D17*
X1848360Y1398640D02*
D03*
Y1364360D02*
D03*
X1829000Y1381000D02*
D03*
X2479000Y1718000D02*
D03*
X2415000Y1653000D02*
D03*
X2529500Y1652429D02*
D03*
X2529000Y1710000D02*
D03*
X2512000Y1659000D02*
D03*
X2503000Y1787000D02*
D03*
Y1767000D02*
D03*
X2516000Y1763000D02*
D03*
X2410000Y1746000D02*
D03*
X2499000Y1612000D02*
D03*
X2181996Y1750997D02*
D03*
X2194996D02*
D03*
X2076000Y1790000D02*
D03*
Y1751000D02*
D03*
X2554000Y1603000D02*
D03*
X2571000Y1591000D02*
D03*
X2227995Y1639997D02*
D03*
X2235000Y1645000D02*
D03*
X2261000D02*
D03*
X2377000Y1664000D02*
D03*
X2639000Y1586000D02*
D03*
X2730000Y1587000D02*
D03*
X2863000Y1592000D02*
D03*
X2490000Y1640000D02*
D03*
X2732000Y1546000D02*
D03*
X2865000Y1534000D02*
D03*
X2343000Y1755000D02*
D03*
X2241250Y1756750D02*
D03*
X2235000Y1750000D02*
D03*
X2228000Y1757000D02*
D03*
X2222000Y1750000D02*
D03*
X2215000Y1757000D02*
D03*
X2209000Y1750500D02*
D03*
X2048000Y1752000D02*
D03*
Y1794000D02*
D03*
X2202000Y1757000D02*
D03*
X2189000D02*
D03*
X2175000D02*
D03*
X2166000Y1768000D02*
D03*
X1822000Y1320000D02*
D03*
X2163000Y1721000D02*
D03*
X2142000Y2097000D02*
D03*
X2490000Y1679000D02*
D03*
X2447000Y1714000D02*
D03*
X2436000Y1851000D02*
D03*
X2438500Y1713500D02*
D03*
X2421000Y1850000D02*
D03*
X2431000Y1737000D02*
D03*
X2446000Y1810000D02*
D03*
X2456000Y1796000D02*
D03*
X2106000Y1702000D02*
D03*
X2138000Y1774000D02*
D03*
X2114000D02*
D03*
X2166000Y1696000D02*
D03*
Y1626000D02*
D03*
X2144000Y1634000D02*
D03*
M02*
