G04*
G04 #@! TF.GenerationSoftware,Altium Limited,Altium Designer,20.2.6 (244)*
G04*
G04 Layer_Color=8388736*
%FSLAX44Y44*%
%MOMM*%
G71*
G04*
G04 #@! TF.SameCoordinates,0F27BA18-1C3A-4387-AE1D-EB8F93CB1518*
G04*
G04*
G04 #@! TF.FilePolarity,Negative*
G04*
G01*
G75*
%ADD11R,1.2032X1.6032*%
%ADD12C,0.2032*%
%ADD13R,0.2032X0.2032*%
D11*
X2732000Y1571000D02*
D03*
X2712000D02*
D03*
X2864000D02*
D03*
X2844000D02*
D03*
X2728000Y1798000D02*
D03*
X2708000D02*
D03*
X2863000D02*
D03*
X2843000D02*
D03*
X2642000Y1280000D02*
D03*
X2622000D02*
D03*
X2576000Y1797000D02*
D03*
X2556000D02*
D03*
X2499000Y1500000D02*
D03*
X2479000D02*
D03*
X2570000Y1393000D02*
D03*
X2550000D02*
D03*
X2187000Y1394000D02*
D03*
X2167000D02*
D03*
X2115000Y1288000D02*
D03*
X2095000D02*
D03*
X2377000Y1617000D02*
D03*
X2357000D02*
D03*
X2262000Y1499000D02*
D03*
X2242000D02*
D03*
X2266000Y1851000D02*
D03*
X2246000D02*
D03*
X2343000Y1735000D02*
D03*
X2323000D02*
D03*
X2111000Y2084000D02*
D03*
X2091000D02*
D03*
X2191000Y1964000D02*
D03*
X2171000D02*
D03*
X1895000Y1965000D02*
D03*
X1875000D02*
D03*
X1819000Y2082000D02*
D03*
X1799000D02*
D03*
X2048000Y1733000D02*
D03*
X2028000D02*
D03*
X1975000Y1845000D02*
D03*
X1955000D02*
D03*
X1981000Y1533000D02*
D03*
X1961000D02*
D03*
X2048000Y1630000D02*
D03*
X2028000D02*
D03*
X1822000Y1301000D02*
D03*
X1802000D02*
D03*
X1902000Y1416000D02*
D03*
X1882000D02*
D03*
D12*
X2395780Y1823730D02*
D03*
X2395780Y1844050D02*
D03*
X2446580Y1833890D02*
D03*
D13*
X2477510Y1456540D02*
D03*
M02*
