G04 Generated by UcamX,v2020.12-210212 on 2021.5.5*
%FSLAX26Y26*%
%MOIN*%
%ADD10C,0.010000*%
%ADD11R,0.078740X0.062992*%
%ADD12R,0.070866X0.027559*%
%AMBOXR*
$16=$1/2*
$17=$2/2*
$8=$16-$3*
$9=$17-$3*
$10=$8X$6*
$11=$8X$5*
$12=$9X$6*
$13=$9X$5*
$15=2X$3*
$18=0-$10*
$19=0-$11*
21,1-$7,$1,$2-$15,0,0,$4*
21,1-$7,$1-$15,$2,0,0,$4*
1,1-$7,$15,$10-$13,$11+$12*
1,1-$7,$15,$18-$13,$12-$11*
1,1-$7,$15,$10+$13,$11-$12*
1,1-$7,$15,$13-$10,$19-$12*%
%ADD13BOXR,0.011811X0.031496X0.002953X0.00X0X1X0*%
%ADD14R,0.035433X0.051181*%
%ADD15R,0.051181X0.027559*%
%ADD16R,0.051181X0.035433*%
%ADD17C,0.025000*%
%ADD18C,0.220000*%
%ADD19C,0.030000*%
%ADD20C,0.020000*%
%ADD21C,0.015000*%
%ADD22C,0.031496*%
%ADD24C,0.039370*%
%ADD25C,0.078740*%
%ADD26C,0.118110*%
%ADD27R,0.059055X0.059055*%
%ADD28C,0.015748*%
%SRX1Y1I0.000000J0.000000*%
G04 layer name: top*
%LPD*%
%SRX4Y10I2.093701J0.478740*%
G36*
X769921Y783504D02*
X1703701D01*
Y754291D01*
X1655433D01*
Y673984D01*
Y673110D01*
X1657598Y664882D01*
Y607323D01*
X1703701D01*
Y590079D01*
X1657598D01*
Y532520D01*
X1703701D01*
Y454748D01*
X1693142Y444189D01*
X1667535D01*
X1664500Y454189D01*
X1666724Y455677D01*
X1672252Y463945D01*
X1674189Y473701D01*
X1672252Y483457D01*
X1666724Y491725D01*
X1658457Y497252D01*
X1648701Y499189D01*
X1640866D01*
Y514291D01*
X1595201D01*
X1588858Y522024D01*
X1589189Y523701D01*
X1587252Y533457D01*
X1581724Y541725D01*
X1573457Y547252D01*
X1568535Y548228D01*
X1566626Y558803D01*
X1577740Y569921D01*
X1644291D01*
Y627480D01*
X1563110D01*
Y622725D01*
X1560716Y622252D01*
X1552449Y616725D01*
X1528244Y592520D01*
X1483110D01*
Y527087D01*
X1480252Y525047D01*
X1478559Y523843D01*
X1477130Y521697D01*
X1470866Y514291D01*
X1464027D01*
X1419996D01*
X1418480Y521894D01*
X1413842Y528843D01*
X1406894Y533484D01*
X1398701Y535114D01*
X1390508Y533484D01*
X1383559Y528843D01*
X1378917Y521894D01*
X1377405Y514291D01*
X1360224D01*
X1357909Y516799D01*
X1353736Y524291D01*
X1354642Y528858D01*
Y554449D01*
X1353248Y561453D01*
X1349283Y567394D01*
X1343342Y571358D01*
X1340547Y571917D01*
X1322949Y589516D01*
X1317988Y592831D01*
X1312134Y593996D01*
X1296669D01*
X1290429Y603996D01*
X1291063Y605284D01*
X1296024Y608599D01*
X1314764Y627339D01*
X1323476Y632295D01*
X1349059Y606713D01*
X1354020Y603398D01*
X1355527Y603099D01*
X1358559Y598559D01*
X1365508Y593917D01*
X1373701Y592288D01*
X1381894Y593917D01*
X1384161Y595433D01*
X1464291D01*
Y637528D01*
X1473701Y645965D01*
X1480878Y646910D01*
X1487571Y649681D01*
X1493315Y654087D01*
X1497720Y659831D01*
X1500492Y666524D01*
X1501437Y673701D01*
X1500492Y680878D01*
X1497720Y687571D01*
X1493315Y693315D01*
X1487571Y697721D01*
X1480878Y700492D01*
X1473701Y701437D01*
X1466524Y700492D01*
X1463378Y699189D01*
X1428701D01*
X1418945Y697252D01*
X1410677Y691725D01*
X1409724Y690776D01*
X1404287Y692429D01*
X1399846Y695036D01*
X1398484Y701894D01*
X1393842Y708843D01*
X1386894Y713480D01*
X1378701Y715110D01*
X1370508Y713480D01*
X1363559Y708843D01*
X1358921Y701894D01*
X1358693Y700760D01*
X1358587Y700689D01*
X1352701Y694799D01*
X1350118D01*
X1343228Y693429D01*
X1336338Y694799D01*
X1330433D01*
X1323543Y693429D01*
X1316653Y694799D01*
X1310748D01*
X1303858Y693429D01*
X1296968Y694799D01*
X1291063D01*
X1284059Y693406D01*
X1278122Y689441D01*
X1276874Y687579D01*
X1267779Y683847D01*
X1264063Y684047D01*
X1258701Y685114D01*
X1250508Y683480D01*
X1243559Y678843D01*
X1238917Y671894D01*
X1237988Y667209D01*
X1233575Y662197D01*
X1229189Y660425D01*
X1219189Y664319D01*
Y673701D01*
X1217252Y683457D01*
X1211724Y691725D01*
X1203457Y697252D01*
X1193701Y699189D01*
X1183945Y697252D01*
X1175677Y691725D01*
X1170150Y683457D01*
X1168213Y673701D01*
Y659882D01*
X1150354D01*
Y602323D01*
Y564921D01*
Y527520D01*
X1148260Y518386D01*
X1143917Y511894D01*
X1142291Y503701D01*
X1143917Y495508D01*
X1148559Y488559D01*
X1155508Y483917D01*
X1163701Y482288D01*
X1167047Y482957D01*
X1175468Y476976D01*
X1176031Y468654D01*
X1151567Y444189D01*
X1077520D01*
Y514291D01*
X1069189D01*
Y518701D01*
X1067252Y528457D01*
X1061724Y536725D01*
X1053457Y542252D01*
X1043701Y544189D01*
X1033945Y542252D01*
X1025677Y536725D01*
X1022031Y531272D01*
X1012476Y530532D01*
X1010740Y531000D01*
X1008842Y533843D01*
X1001894Y538480D01*
X993701Y540110D01*
X985508Y538480D01*
X984291Y537669D01*
X974291Y543016D01*
Y591969D01*
Y592213D01*
X981484Y602213D01*
X1017701D01*
X1027457Y604150D01*
X1032728Y607673D01*
X1034024Y608213D01*
X1055866D01*
Y602323D01*
X1137047D01*
Y659882D01*
X1119189D01*
Y685276D01*
X1117252Y695032D01*
X1111724Y703299D01*
X1110866Y704158D01*
Y749291D01*
X1045433D01*
X1041968D01*
X925433D01*
Y668110D01*
X918779Y660866D01*
X893110D01*
Y649189D01*
X856968D01*
X847216Y647252D01*
X846968Y647087D01*
X771417D01*
X768701Y655961D01*
Y713543D01*
X769921D01*
Y783504D01*
G37*
G36*
X758701Y783504D02*
Y403898D01*
X403898D01*
Y783504D01*
X758701D01*
G37*
%LPC*%
G36*
X636716Y484043D02*
X640926Y494207D01*
X648707Y501987D01*
X658870Y506197D01*
X669870D01*
X680033Y501987D01*
X687814Y494207D01*
X692024Y484043D01*
Y473044D01*
X687814Y462880D01*
X680033Y455100D01*
X669870Y450890D01*
X658870D01*
X648707Y455100D01*
X640926Y462880D01*
X636716Y473044D01*
Y484043D01*
G37*
G36*
X636716Y714358D02*
X640926Y724522D01*
X648707Y732302D01*
X658870Y736512D01*
X669870D01*
X680033Y732302D01*
X687814Y724522D01*
X692024Y714358D01*
Y703359D01*
X687814Y693195D01*
X680033Y685414D01*
X669870Y681205D01*
X658870D01*
X648707Y685414D01*
X640926Y693195D01*
X636716Y703359D01*
Y714358D01*
G37*
%LPD*%
D10*
X1369252Y481575D02*
X1398701Y511024D01*
X968150Y481575D02*
X989874Y503299D01*
Y514874D01*
X1169114Y503701D02*
X1178524Y494291D01*
X1187087Y494291D02*
X1199803Y481575D01*
X1493701Y508701D02*
X1513181Y489221D01*
X1526535D01*
X1539252Y476504D01*
X1334291Y663110D02*
Y643110D01*
X1359874Y617528D01*
X1369874D01*
X1353701Y658701D02*
Y674173D01*
X1369401Y689874D01*
X1259724Y542677D02*
X1293110D01*
X1239551Y514906D02*
X1302748D01*
X1312795Y524953D01*
Y542795D01*
X1190945Y556299D02*
X1234527D01*
X1248673Y570441D01*
X1190945Y593701D02*
X1251075D01*
X1276787Y619413D01*
X1285209Y619413D02*
X1312795Y647000D01*
Y672795D01*
X1332480Y534921D02*
Y558354D01*
X1312134Y578701D01*
X1258701D01*
X1250441Y570441D01*
X1398701Y511024D02*
Y513701D01*
X1369252Y473701D02*
Y481575D01*
X968150Y473701D02*
Y481575D01*
X989874Y514874D02*
X993701Y518701D01*
X1178524Y494291D02*
X1187087D01*
X1163701Y503701D02*
X1169114D01*
X1539252Y473701D02*
Y476504D01*
X1369874Y617528D02*
X1373701Y613701D01*
X1333701Y663701D02*
X1334291Y663110D01*
X1293110Y542677D02*
X1293701Y543268D01*
Y543701D01*
X1228835Y520209D02*
X1234248D01*
X1239551Y514906D01*
X1369401Y689874D02*
X1374874D01*
X1378701Y693701D01*
X1312795Y542795D02*
X1313701Y543701D01*
X1258701Y543701D02*
X1259724Y542677D01*
X1248673Y570441D02*
X1250441D01*
X1312795Y672795D02*
X1313701Y673701D01*
X1276787Y619413D02*
X1285209D01*
D11*
X715551Y760039D03*
Y427362D03*
D12*
X821850Y667520D03*
Y618307D03*
Y569094D03*
Y519882D03*
D13*
X1353071Y541654D03*
X1333386D03*
X1313701D03*
X1294016D03*
Y663701D03*
X1313701D03*
X1333386D03*
X1353071D03*
D14*
X958149Y708701D03*
X889252D03*
X1278149Y473701D03*
X1209252D03*
X899252D03*
X968149D03*
X1619252Y713701D03*
X1688149D03*
X1078149Y708701D03*
X1009252D03*
X1113701Y473701D03*
X1044803D03*
X1369252D03*
X1438149D03*
X1539252D03*
X1608149D03*
D15*
X1190945Y556299D03*
Y593701D03*
Y631102D03*
X1096456D03*
Y556299D03*
X1698189Y636102D03*
Y561299D03*
X1603701D03*
Y598701D03*
Y636102D03*
D16*
X1523701Y559803D03*
Y628701D03*
X1778701Y703150D03*
Y634252D03*
X933701Y559252D03*
Y628150D03*
X1423701Y559252D03*
Y628150D03*
D17*
X893701Y763701D03*
X1023701Y633701D03*
X1473701Y673701D03*
X878701Y558701D03*
D18*
X513701Y593701D03*
X1973701D03*
D19*
X1428701Y673701D02*
X1473701D01*
X1423701Y628150D02*
Y668701D01*
X1023701Y633701D02*
X1073976D01*
X934150Y627701D02*
X1017701D01*
X1193701Y633701D02*
Y673701D01*
X961201Y716201D02*
X1006535D01*
X1093701Y632323D02*
Y685276D01*
X1779252Y703701D02*
X1833701D01*
X841063Y519882D02*
X876653Y484291D01*
X898701Y428701D02*
Y473150D01*
X1531575Y559803D02*
X1570472Y598701D01*
X1603701D01*
X1278150Y473701D02*
X1318701D01*
X1043701Y474803D02*
Y518701D01*
X1440866Y468701D02*
X1483701D01*
X1608150Y473701D02*
X1648701D01*
X1539252Y473701D02*
Y443150D01*
X1563701Y418701D01*
X1703701D01*
X1778701Y493701D01*
Y633150D01*
X1699252D01*
X963701Y473701D02*
X1018701Y418701D01*
X1162126D01*
X1209252Y465827D01*
X1256378Y418701D01*
X1322126D01*
X1369252Y465827D01*
X1416378Y418701D01*
X1523701D01*
X1698189Y636102D02*
Y695788D01*
X850905Y559252D02*
X933701D01*
X856968Y623701D02*
X907157D01*
X1113701Y473701D02*
Y543701D01*
X1423701Y668701D02*
X1428701Y673701D01*
X1017701Y627701D02*
X1023701Y633701D01*
X933701Y628150D02*
X934150Y627701D01*
X988701Y663701D02*
X1006535Y681536D01*
Y705984D01*
X1009252Y708701D01*
X1009252Y700827D02*
Y713484D01*
X1006535Y716201D01*
X958701Y718701D02*
X961201Y716201D01*
X1093701Y632323D02*
X1094921Y631102D01*
X1096457D01*
X1095236Y632323D01*
X1075354D01*
X1073976Y633701D01*
X1093701Y685276D02*
X1078150Y700827D01*
Y708701D01*
X1778701Y703150D02*
X1779252Y703701D01*
X876653Y484291D02*
X902087D01*
X903701Y482677D01*
Y473701D01*
X898701Y473150D02*
X899252Y473701D01*
X1523701Y559803D02*
X1531575D01*
X1534291Y557087D01*
Y541276D01*
X1551866Y523701D01*
X1563701D01*
X1043701Y474803D02*
X1044803Y473701D01*
X1438150Y473701D02*
Y471417D01*
X1440866Y468701D01*
X1523701Y418701D02*
X1543701Y438701D01*
X1209252Y465827D02*
Y473701D01*
X1369252Y465827D02*
Y473701D01*
X1778701Y633150D02*
Y634252D01*
X1688150Y713701D02*
Y705827D01*
X1698189Y695788D01*
X1693701Y638701D02*
X1699252Y633150D01*
X821850Y569095D02*
X841063D01*
X850905Y559252D01*
X907157Y623701D02*
X908890Y625433D01*
X930984D01*
X935177Y629626D01*
X937102Y627701D01*
X821850Y618307D02*
X823071Y619528D01*
X852795D01*
X856968Y623701D01*
X1103701Y553701D02*
X1113701Y543701D01*
X821850Y519882D02*
X841063D01*
X993701Y518701D03*
X1423701Y668701D03*
X988701Y663701D03*
X1833701Y703701D03*
X1258701Y663701D03*
X898701Y428701D03*
X863701Y498701D03*
X1193701Y673701D03*
X1563701Y523701D03*
X1318701Y473701D03*
X1043701Y518701D03*
X1398701Y513701D03*
X1483701Y468701D03*
X1648701Y473701D03*
X1378701Y693701D03*
X1373701Y613701D03*
X1228834Y520209D03*
X1258701Y543701D03*
X1163701Y503701D03*
X1493701Y508701D03*
D20*
X897520Y676236D02*
Y715984D01*
X1357165Y544701D02*
X1401275D01*
X1415827Y559252D01*
X1603701Y636102D02*
Y695276D01*
X1623701Y715276D01*
X1600079Y632323D02*
X1639953D01*
X1527401Y632402D02*
X1600000D01*
X1645291Y578295D02*
Y626984D01*
X1607480Y565079D02*
X1632075D01*
X898701Y673701D02*
Y675055D01*
X897520Y676236D01*
X889803Y723701D02*
X897520Y715984D01*
X1415827Y559252D02*
X1423701D01*
X1623701Y715276D02*
Y718701D01*
X1600079Y632323D02*
X1600000Y632402D01*
X1603701Y636102D01*
X1593701Y638701D02*
X1600000Y632402D01*
X1523701Y628701D02*
X1527401Y632402D01*
X1639953Y632323D02*
X1645291Y626984D01*
X1603701Y561299D02*
X1607480Y565079D01*
X1632075Y565079D02*
X1645291Y578295D01*
D21*
X1258701Y663701D02*
X1294016D01*
%LPC*%
D22*
X393701Y393701D02*
Y793701D01*
X2093701Y513701D02*
Y793701D01*
%LPC*%
%SRX1Y1I2.093701J0.478740*%
%LPD*%
D24*
X196851Y590551D03*
D25*
Y4905512D03*
D26*
X8571654D03*
D27*
X789961Y79654D03*
X868957D03*
X947953D03*
X1026949D03*
X1105945D03*
X1184941D03*
X1263937D03*
X1342933D03*
X1421929D03*
X1500925D03*
X1579921D03*
X1658917D03*
X1737913D03*
X1816909D03*
X1895906D03*
X1974902D03*
X2211890D03*
X2290886D03*
X2369882D03*
X2606870D03*
X2685866D03*
X2764862D03*
X2843858D03*
X2922854D03*
X3001850D03*
X3080846D03*
X3159843D03*
X3238839D03*
X3317835D03*
X3396831D03*
X3475827D03*
X3554823D03*
X3633819D03*
X3712815D03*
X3791811D03*
X3870807D03*
X3949803D03*
X4028799D03*
X4107795D03*
X4265787D03*
X4344783D03*
X4423780D03*
X4502776D03*
X4660768D03*
X4739764D03*
X4818760D03*
X4897756D03*
X4976752D03*
X5055748D03*
X5134744D03*
X5213740D03*
X5292736D03*
X5371732D03*
X5450728D03*
X5529724D03*
X5608720D03*
X5687717D03*
X5766713D03*
X5845709D03*
X5924705D03*
X6003701D03*
X6082697D03*
X6161693D03*
X6398681D03*
X6477677D03*
X6556673D03*
X6793661D03*
X6872657D03*
X6951654D03*
X7030650D03*
X7109646D03*
X7188642D03*
X7267638D03*
X7346634D03*
X7425630D03*
X7504626D03*
X7583622D03*
X7662618D03*
X7741614D03*
X7820610D03*
X7899606D03*
X7978602D03*
X789961Y159307D03*
X868957D03*
X947953D03*
X1026949D03*
X1105945D03*
X1184941D03*
X1263937D03*
X1342933D03*
X1421929D03*
X1500925D03*
X1579921D03*
X1658917D03*
X1737913D03*
X1816909D03*
X1895906D03*
X1974902D03*
X2211890D03*
X2290886D03*
X2369882D03*
X2606870D03*
X2685866D03*
X2764862D03*
X2843858D03*
X2922854D03*
X3001850D03*
X3080846D03*
X3159843D03*
X3238839D03*
X3317835D03*
X3396831D03*
X3475827D03*
X3554823D03*
X3633819D03*
X3712815D03*
X3791811D03*
X3870807D03*
X3949803D03*
X4028799D03*
X4107795D03*
X4265787D03*
X4344783D03*
X4423780D03*
X4502776D03*
X4660768D03*
X4739764D03*
X4818760D03*
X4897756D03*
X4976752D03*
X5055748D03*
X5134744D03*
X5213740D03*
X5292736D03*
X5371732D03*
X5450728D03*
X5529724D03*
X5608720D03*
X5687717D03*
X5766713D03*
X5845709D03*
X5924705D03*
X6003701D03*
X6082697D03*
X6161693D03*
X6398681D03*
X6477677D03*
X6556673D03*
X6793661D03*
X6872657D03*
X6951654D03*
X7030650D03*
X7109646D03*
X7188642D03*
X7267638D03*
X7346634D03*
X7425630D03*
X7504626D03*
X7583622D03*
X7662618D03*
X7741614D03*
X7820610D03*
X7899606D03*
X7978602D03*
X2211890Y238961D03*
X2290886D03*
X2369882D03*
X4265787D03*
X4344783D03*
X4423780D03*
X6398681D03*
X6477677D03*
X6556673D03*
X2211890Y318614D03*
X2290886D03*
X4344783D03*
X4423780D03*
X6398681D03*
X6477677D03*
X78996Y398268D03*
X157992D03*
X236988D03*
X2290886D03*
X4344783D03*
X4423780D03*
X6477677D03*
X8531575D03*
X8610571D03*
X8689567D03*
X2290886Y477921D03*
X2369882D03*
X4344783D03*
X4423780D03*
X6477677D03*
X6556673D03*
X8531575D03*
X8610571D03*
X8689567D03*
X2290886Y557575D03*
X2369882D03*
X4344783D03*
X4423780D03*
X6477677D03*
X6556673D03*
X8531575D03*
X8610571D03*
X8689567D03*
X2211890Y637228D03*
X2290886D03*
X2369882D03*
X4344783D03*
X4423780D03*
X6398681D03*
X6477677D03*
X6556673D03*
X8531575D03*
X8610571D03*
X8689567D03*
X2211890Y716882D03*
X2290886D03*
X2369882D03*
X4344783D03*
X4423780D03*
X6398681D03*
X6477677D03*
X6556673D03*
X8531575D03*
X8610571D03*
X8689567D03*
X78996Y796535D03*
X157992D03*
X236988D03*
X2290886D03*
X4344783D03*
X4423780D03*
X6477677D03*
X8531575D03*
X8610571D03*
X8689567D03*
X2290886Y876189D03*
X4344783D03*
X4423780D03*
X6477677D03*
X8531575D03*
X8610571D03*
X8689567D03*
X2290886Y955843D03*
X2369882D03*
X4344783D03*
X4423780D03*
X6477677D03*
X6556673D03*
X8531575D03*
X8610571D03*
X8689567D03*
X2290886Y1035496D03*
X2369882D03*
X4344783D03*
X4423780D03*
X6477677D03*
X6556673D03*
X8531575D03*
X8610571D03*
X8689567D03*
X2211890Y1115150D03*
X2290886D03*
X2369882D03*
X4344783D03*
X4423780D03*
X6398681D03*
X6477677D03*
X6556673D03*
X8531575D03*
X8610571D03*
X8689567D03*
X2211890Y1194803D03*
X2290886D03*
X2369882D03*
X4344783D03*
X4423780D03*
X6398681D03*
X6477677D03*
X6556673D03*
X8531575D03*
X8610571D03*
X8689567D03*
X2290886Y1274457D03*
X4344783D03*
X4423780D03*
X6477677D03*
X8531575D03*
X8610571D03*
X8689567D03*
X78996Y1354110D03*
X157992D03*
X236988D03*
X2290886D03*
X4344783D03*
X4423780D03*
X6477677D03*
X8531575D03*
X8610571D03*
X8689567D03*
X78996Y1433764D03*
X157992D03*
X236988D03*
X2290886D03*
X2369882D03*
X4344783D03*
X4423780D03*
X6477677D03*
X6556673D03*
X8531575D03*
X8610571D03*
X8689567D03*
X78996Y1513417D03*
X157992D03*
X236988D03*
X2290886D03*
X2369882D03*
X4344783D03*
X4423780D03*
X6477677D03*
X6556673D03*
X8531575D03*
X8610571D03*
X8689567D03*
X78996Y1593071D03*
X157992D03*
X236988D03*
X2211890D03*
X2290886D03*
X2369882D03*
X4344783D03*
X4423780D03*
X6398681D03*
X6477677D03*
X6556673D03*
X8531575D03*
X8610571D03*
X8689567D03*
X78996Y1672724D03*
X157992D03*
X236988D03*
X2211890D03*
X2290886D03*
X2369882D03*
X4344783D03*
X4423780D03*
X6398681D03*
X6477677D03*
X6556673D03*
X8531575D03*
X8610571D03*
X8689567D03*
X78996Y1752378D03*
X157992D03*
X236988D03*
X2290886D03*
X4344783D03*
X4423780D03*
X6477677D03*
X8531575D03*
X8610571D03*
X8689567D03*
X78996Y1832031D03*
X157992D03*
X236988D03*
X2290886D03*
X4344783D03*
X4423780D03*
X6477677D03*
X8531575D03*
X8610571D03*
X8689567D03*
X78996Y1911685D03*
X157992D03*
X236988D03*
X2290886D03*
X2369882D03*
X4344783D03*
X4423780D03*
X6477677D03*
X6556673D03*
X8531575D03*
X8610571D03*
X8689567D03*
X78996Y1991339D03*
X157992D03*
X236988D03*
X2290886D03*
X2369882D03*
X4344783D03*
X4423780D03*
X6477677D03*
X6556673D03*
X8531575D03*
X8610571D03*
X8689567D03*
X78996Y2070992D03*
X157992D03*
X236988D03*
X2211890D03*
X2290886D03*
X2369882D03*
X4344783D03*
X4423780D03*
X6398681D03*
X6477677D03*
X6556673D03*
X8531575D03*
X8610571D03*
X8689567D03*
X78996Y2150646D03*
X157992D03*
X236988D03*
X2211890D03*
X2290886D03*
X2369882D03*
X4344783D03*
X4423780D03*
X6398681D03*
X6477677D03*
X6556673D03*
X8531575D03*
X8610571D03*
X8689567D03*
X78996Y2230299D03*
X157992D03*
X236988D03*
X2290886D03*
X4344783D03*
X4423780D03*
X6477677D03*
X8531575D03*
X8610571D03*
X8689567D03*
X78996Y2309953D03*
X157992D03*
X236988D03*
X2290886D03*
X4344783D03*
X4423780D03*
X6477677D03*
X8531575D03*
X8610571D03*
X8689567D03*
X78996Y2389606D03*
X157992D03*
X236988D03*
X2290886D03*
X2369882D03*
X4344783D03*
X4423780D03*
X6477677D03*
X6556673D03*
X8531575D03*
X8610571D03*
X8689567D03*
X78996Y2469260D03*
X157992D03*
X236988D03*
X2290886D03*
X2369882D03*
X4344783D03*
X4423780D03*
X6477677D03*
X6556673D03*
X8531575D03*
X8610571D03*
X8689567D03*
X78996Y2548913D03*
X157992D03*
X236988D03*
X2211890D03*
X2290886D03*
X2369882D03*
X4344783D03*
X4423780D03*
X6398681D03*
X6477677D03*
X6556673D03*
X8531575D03*
X8610571D03*
X8689567D03*
X78996Y2628567D03*
X157992D03*
X236988D03*
X2211890D03*
X2290886D03*
X2369882D03*
X4344783D03*
X4423780D03*
X6398681D03*
X6477677D03*
X6556673D03*
X8531575D03*
X8610571D03*
X8689567D03*
X78996Y2708220D03*
X157992D03*
X236988D03*
X2290886D03*
X4344783D03*
X4423780D03*
X6477677D03*
X8531575D03*
X8610571D03*
X8689567D03*
X78996Y2787874D03*
X157992D03*
X236988D03*
X2290886D03*
X4344783D03*
X4423780D03*
X6477677D03*
X8531575D03*
X8610571D03*
X8689567D03*
X78996Y2867528D03*
X157992D03*
X236988D03*
X2290886D03*
X2369882D03*
X4344783D03*
X4423780D03*
X6477677D03*
X6556673D03*
X8531575D03*
X8610571D03*
X8689567D03*
X78996Y2947181D03*
X157992D03*
X236988D03*
X2290886D03*
X2369882D03*
X4344783D03*
X4423780D03*
X6477677D03*
X6556673D03*
X8531575D03*
X8610571D03*
X8689567D03*
X78996Y3026835D03*
X157992D03*
X236988D03*
X2211890D03*
X2290886D03*
X2369882D03*
X4344783D03*
X4423780D03*
X6398681D03*
X6477677D03*
X6556673D03*
X8531575D03*
X8610571D03*
X8689567D03*
X78996Y3106488D03*
X157992D03*
X236988D03*
X2211890D03*
X2290886D03*
X2369882D03*
X4344783D03*
X4423780D03*
X6398681D03*
X6477677D03*
X6556673D03*
X8531575D03*
X8610571D03*
X8689567D03*
X78996Y3186142D03*
X157992D03*
X236988D03*
X2290886D03*
X4344783D03*
X4423780D03*
X6477677D03*
X8531575D03*
X8610571D03*
X8689567D03*
X78996Y3265795D03*
X157992D03*
X236988D03*
X2290886D03*
X4344783D03*
X4423780D03*
X6477677D03*
X8531575D03*
X8610571D03*
X8689567D03*
X78996Y3345449D03*
X157992D03*
X236988D03*
X2290886D03*
X2369882D03*
X4344783D03*
X4423780D03*
X6477677D03*
X6556673D03*
X8531575D03*
X8610571D03*
X8689567D03*
X78996Y3425102D03*
X157992D03*
X236988D03*
X2290886D03*
X2369882D03*
X4344783D03*
X4423780D03*
X6477677D03*
X6556673D03*
X8531575D03*
X8610571D03*
X8689567D03*
X78996Y3504756D03*
X157992D03*
X236988D03*
X2211890D03*
X2290886D03*
X2369882D03*
X4344783D03*
X4423780D03*
X6398681D03*
X6477677D03*
X6556673D03*
X8531575D03*
X8610571D03*
X8689567D03*
X78996Y3584409D03*
X157992D03*
X236988D03*
X2211890D03*
X2290886D03*
X2369882D03*
X4344783D03*
X4423780D03*
X6398681D03*
X6477677D03*
X6556673D03*
X8531575D03*
X8610571D03*
X8689567D03*
X78996Y3664063D03*
X157992D03*
X236988D03*
X2290886D03*
X4344783D03*
X4423780D03*
X6477677D03*
X8531575D03*
X8610571D03*
X8689567D03*
X78996Y3743717D03*
X157992D03*
X236988D03*
X2290886D03*
X4344783D03*
X4423780D03*
X6477677D03*
X8531575D03*
X8610571D03*
X8689567D03*
X78996Y3823370D03*
X157992D03*
X236988D03*
X2290886D03*
X2369882D03*
X4344783D03*
X4423780D03*
X6477677D03*
X6556673D03*
X8531575D03*
X8610571D03*
X8689567D03*
X78996Y3903024D03*
X157992D03*
X236988D03*
X2290886D03*
X2369882D03*
X4344783D03*
X4423780D03*
X6477677D03*
X6556673D03*
X8531575D03*
X8610571D03*
X8689567D03*
X78996Y3982677D03*
X157992D03*
X236988D03*
X2211890D03*
X2290886D03*
X2369882D03*
X4344783D03*
X4423780D03*
X6398681D03*
X6477677D03*
X6556673D03*
X8531575D03*
X8610571D03*
X8689567D03*
X78996Y4062331D03*
X157992D03*
X236988D03*
X2211890D03*
X2290886D03*
X2369882D03*
X4344783D03*
X4423780D03*
X6398681D03*
X6477677D03*
X6556673D03*
X8531575D03*
X8610571D03*
X8689567D03*
X78996Y4141984D03*
X157992D03*
X236988D03*
X2290886D03*
X4344783D03*
X4423780D03*
X6477677D03*
X8531575D03*
X8610571D03*
X8689567D03*
X2290886Y4221638D03*
X4344783D03*
X4423780D03*
X6477677D03*
X8531575D03*
X8610571D03*
X8689567D03*
X2290886Y4301291D03*
X2369882D03*
X4344783D03*
X4423780D03*
X6477677D03*
X6556673D03*
X8531575D03*
X8610571D03*
X8689567D03*
X2290886Y4380945D03*
X2369882D03*
X4344783D03*
X4423780D03*
X6477677D03*
X6556673D03*
X8531575D03*
X8610571D03*
X8689567D03*
X2211890Y4460598D03*
X2290886D03*
X2369882D03*
X4344783D03*
X4423780D03*
X6398681D03*
X6477677D03*
X6556673D03*
X8531575D03*
X8610571D03*
X8689567D03*
X2211890Y4540252D03*
X2290886D03*
X2369882D03*
X4344783D03*
X4423780D03*
X6398681D03*
X6477677D03*
X6556673D03*
X8531575D03*
X8610571D03*
X8689567D03*
X2290886Y4619906D03*
X4344783D03*
X4423780D03*
X6477677D03*
X8531575D03*
X8610571D03*
X8689567D03*
X78996Y4699559D03*
X157992D03*
X236988D03*
X2290886D03*
X4344783D03*
X4423780D03*
X6477677D03*
X8531575D03*
X8610571D03*
X8689567D03*
X2290886Y4779213D03*
X2369882D03*
X4344783D03*
X4423780D03*
X6477677D03*
X6556673D03*
X2290886Y4858866D03*
X2369882D03*
X4344783D03*
X4423780D03*
X6477677D03*
X6556673D03*
X2211890Y4938520D03*
X2290886D03*
X2369882D03*
X4344783D03*
X4423780D03*
X6398681D03*
X6477677D03*
X6556673D03*
X2211890Y5018173D03*
X2290886D03*
X2369882D03*
X4344783D03*
X4423780D03*
X6398681D03*
X6477677D03*
X6556673D03*
X78996Y5097827D03*
X157992D03*
X236988D03*
X2290886D03*
X4344783D03*
X4423780D03*
X6477677D03*
X8531575D03*
X8610571D03*
X8689567D03*
X2290886Y5177480D03*
X4344783D03*
X4423780D03*
X6477677D03*
X2211890Y5257134D03*
X2290886D03*
X2369882D03*
X4344783D03*
X4423780D03*
X6398681D03*
X6477677D03*
X6556673D03*
X473976Y5336787D03*
X552972D03*
X631969D03*
X710965D03*
X789961D03*
X868957D03*
X1579921D03*
X1658917D03*
X1737913D03*
X1816909D03*
X1895906D03*
X1974902D03*
X2211890D03*
X2290886D03*
X2369882D03*
X2606870D03*
X2685866D03*
X2764862D03*
X2843858D03*
X2922854D03*
X3001850D03*
X3080846D03*
X3159843D03*
X3238839D03*
X3317835D03*
X3396831D03*
X3475827D03*
X3554823D03*
X3633819D03*
X3712815D03*
X3791811D03*
X3870807D03*
X3949803D03*
X4028799D03*
X4107795D03*
X4265787D03*
X4344783D03*
X4423780D03*
X4502776D03*
X4660768D03*
X4739764D03*
X4818760D03*
X4897756D03*
X4976752D03*
X5055748D03*
X5134744D03*
X5213740D03*
X5292736D03*
X5371732D03*
X5450728D03*
X5529724D03*
X5608720D03*
X5687717D03*
X5766713D03*
X5845709D03*
X5924705D03*
X6003701D03*
X6082697D03*
X6161693D03*
X6398681D03*
X6477677D03*
X6556673D03*
X6793661D03*
X6872657D03*
X6951654D03*
X7030650D03*
X7109646D03*
X7188642D03*
X7267638D03*
X7346634D03*
X7425630D03*
X7504626D03*
X7583622D03*
X7662618D03*
X7741614D03*
X7820610D03*
X7899606D03*
X7978602D03*
X8057598D03*
X8136594D03*
X8215591D03*
X8294587D03*
X473976Y5416441D03*
X552972D03*
X631969D03*
X710965D03*
X789961D03*
X868957D03*
X1579921D03*
X1658917D03*
X1737913D03*
X1816909D03*
X1895906D03*
X1974902D03*
X2211890D03*
X2290886D03*
X2369882D03*
X2606870D03*
X2685866D03*
X2764862D03*
X2843858D03*
X2922854D03*
X3001850D03*
X3080846D03*
X3159843D03*
X3238839D03*
X3317835D03*
X3396831D03*
X3475827D03*
X3554823D03*
X3633819D03*
X3712815D03*
X3791811D03*
X3870807D03*
X3949803D03*
X4028799D03*
X4107795D03*
X4265787D03*
X4344783D03*
X4423780D03*
X4502776D03*
X4660768D03*
X4739764D03*
X4818760D03*
X4897756D03*
X4976752D03*
X5055748D03*
X5134744D03*
X5213740D03*
X5292736D03*
X5371732D03*
X5450728D03*
X5529724D03*
X5608720D03*
X5687717D03*
X5766713D03*
X5845709D03*
X5924705D03*
X6003701D03*
X6082697D03*
X6161693D03*
X6398681D03*
X6477677D03*
X6556673D03*
X6793661D03*
X6872657D03*
X6951654D03*
X7030650D03*
X7109646D03*
X7188642D03*
X7267638D03*
X7346634D03*
X7425630D03*
X7504626D03*
X7583622D03*
X7662618D03*
X7741614D03*
X7820610D03*
X7899606D03*
X7978602D03*
X8057598D03*
X8136594D03*
X8215591D03*
X8294587D03*
D28*
X1036487Y5381289D02*
X1085424D01*
X1058731Y5345699D01*
X1072077D01*
X1080975Y5341250D01*
X1085424Y5336801D01*
X1089872Y5323455D01*
Y5314557D01*
X1085424Y5301211D01*
X1076526Y5292313D01*
X1063179Y5287864D01*
X1049833D01*
X1036487Y5292313D01*
X1032038Y5296762D01*
X1027589Y5305659D01*
X1165502Y5381289D02*
X1121014Y5319006D01*
X1187746D01*
X1165502Y5381289D02*
Y5287864D01*
X1272274Y5350148D02*
X1267825Y5336801D01*
X1258927Y5327903D01*
X1245581Y5323455D01*
X1241132D01*
X1227786Y5327903D01*
X1218888Y5336801D01*
X1214439Y5350148D01*
Y5354596D01*
X1218888Y5367943D01*
X1227786Y5376840D01*
X1241132Y5381289D01*
X1245581D01*
X1258927Y5376840D01*
X1267825Y5367943D01*
X1272274Y5350148D01*
Y5327903D01*
X1267825Y5305659D01*
X1258927Y5292313D01*
X1245581Y5287864D01*
X1236683D01*
X1223337Y5292313D01*
X1218888Y5301211D01*
X1361250Y5367943D02*
X1356801Y5376840D01*
X1343455Y5381289D01*
X1334557D01*
X1321211Y5376840D01*
X1312313Y5363494D01*
X1307864Y5341250D01*
Y5319006D01*
X1312313Y5301211D01*
X1321211Y5292313D01*
X1334557Y5287864D01*
X1339006D01*
X1352353Y5292313D01*
X1361250Y5301211D01*
X1365699Y5314557D01*
Y5319006D01*
X1361250Y5332352D01*
X1352353Y5341250D01*
X1339006Y5345699D01*
X1334557D01*
X1321211Y5341250D01*
X1312313Y5332352D01*
X1307864Y5319006D01*
X1459124Y5350148D02*
X1454675Y5336801D01*
X1445778Y5327903D01*
X1432431Y5323455D01*
X1427983D01*
X1414636Y5327903D01*
X1405738Y5336801D01*
X1401290Y5350148D01*
Y5354596D01*
X1405738Y5367943D01*
X1414636Y5376840D01*
X1427983Y5381289D01*
X1432431D01*
X1445778Y5376840D01*
X1454675Y5367943D01*
X1459124Y5350148D01*
Y5327903D01*
X1454675Y5305659D01*
X1445778Y5292313D01*
X1432431Y5287864D01*
X1423534D01*
X1410187Y5292313D01*
X1405738Y5301211D01*
X492077Y209872D02*
Y116447D01*
X460935Y209872D02*
X523219D01*
X581053Y209872D02*
X572156Y205423D01*
X563258Y196526D01*
X558809Y187628D01*
X554361Y174282D01*
Y152038D01*
X558809Y138691D01*
X563258Y129793D01*
X572156Y120896D01*
X581053Y116447D01*
X598849D01*
X607746Y120896D01*
X616644Y129793D01*
X621093Y138691D01*
X625542Y152038D01*
Y174282D01*
X621093Y187628D01*
X616644Y196526D01*
X607746Y205423D01*
X598849Y209872D01*
X581053D01*
X647786Y209872D02*
Y116447D01*
X647786Y209872D02*
X687825D01*
X701172Y205423D01*
X705620Y200975D01*
X710069Y192077D01*
Y178730D01*
X705620Y169833D01*
X701172Y165384D01*
X687825Y160935D01*
X647786D01*
X8089478Y209872D02*
Y116447D01*
X8058337Y209872D02*
X8120620D01*
X8178455Y209872D02*
X8169557Y205423D01*
X8160660Y196526D01*
X8156211Y187628D01*
X8151762Y174282D01*
Y152038D01*
X8156211Y138691D01*
X8160660Y129793D01*
X8169557Y120896D01*
X8178455Y116447D01*
X8196250D01*
X8205148Y120896D01*
X8214045Y129793D01*
X8218494Y138691D01*
X8222943Y152038D01*
Y174282D01*
X8218494Y187628D01*
X8214045Y196526D01*
X8205148Y205423D01*
X8196250Y209872D01*
X8178455D01*
X8245187Y209872D02*
Y116447D01*
X8245187Y209872D02*
X8285226D01*
X8298573Y205423D01*
X8303022Y200975D01*
X8307471Y192077D01*
Y178730D01*
X8303022Y169833D01*
X8298573Y165384D01*
X8285226Y160935D01*
X8245187D01*
X137018Y962904D02*
X128120Y958455D01*
X119223Y949557D01*
X114774Y940660D01*
Y922864D01*
X119223Y913967D01*
X128120Y905069D01*
X137018Y900620D01*
X150364Y896171D01*
X172609D01*
X185955Y900620D01*
X194853Y905069D01*
X203750Y913967D01*
X208199Y922864D01*
Y940660D01*
X203750Y949557D01*
X194853Y958455D01*
X185955Y962904D01*
X172609D01*
X172609Y940660D02*
Y962904D01*
X114774Y989597D02*
X208199D01*
X114774Y989597D02*
Y1029636D01*
X119223Y1042982D01*
X123672Y1047431D01*
X132569Y1051880D01*
X141467D01*
X150364Y1047431D01*
X154813Y1042982D01*
X159262Y1029636D01*
Y989597D01*
X159262Y1020738D02*
X208199Y1051880D01*
X114774Y1118612D02*
X208199Y1083022D01*
X114774Y1118612D02*
X208199Y1154203D01*
X177057Y1096368D02*
Y1140856D01*
X114774Y1176447D02*
X208199D01*
X114774Y1176447D02*
Y1216486D01*
X119223Y1229833D01*
X123672Y1234282D01*
X132569Y1238730D01*
X141467D01*
X150364Y1234282D01*
X154813Y1229833D01*
X159262Y1216486D01*
X159262Y1176447D02*
Y1216486D01*
X163711Y1229833D01*
X168160Y1234282D01*
X177057Y1238730D01*
X190404D01*
X199301Y1234282D01*
X203750Y1229833D01*
X208199Y1216486D01*
Y1176447D01*
X137018Y4324085D02*
X128120Y4319636D01*
X119223Y4310738D01*
X114774Y4301840D01*
Y4284045D01*
X119223Y4275148D01*
X128120Y4266250D01*
X137018Y4261801D01*
X150364Y4257352D01*
X172609D01*
X185955Y4261801D01*
X194853Y4266250D01*
X203750Y4275148D01*
X208199Y4284045D01*
Y4301840D01*
X203750Y4310738D01*
X194853Y4319636D01*
X185955Y4324085D01*
X172609D01*
X172609Y4301840D02*
Y4324085D01*
X114774Y4350777D02*
X208199D01*
X114774Y4350777D02*
Y4390817D01*
X119223Y4404163D01*
X123672Y4408612D01*
X132569Y4413061D01*
X141467D01*
X150364Y4408612D01*
X154813Y4404163D01*
X159262Y4390817D01*
Y4350777D01*
X159262Y4381919D02*
X208199Y4413061D01*
X114774Y4479793D02*
X208199Y4444203D01*
X114774Y4479793D02*
X208199Y4515384D01*
X177057Y4457549D02*
Y4502037D01*
X114774Y4537628D02*
X208199D01*
X114774Y4537628D02*
Y4577667D01*
X119223Y4591014D01*
X123672Y4595463D01*
X132569Y4599911D01*
X141467D01*
X150364Y4595463D01*
X154813Y4591014D01*
X159262Y4577667D01*
X159262Y4537628D02*
Y4577667D01*
X163711Y4591014D01*
X168160Y4595463D01*
X177057Y4599911D01*
X190404D01*
X199301Y4595463D01*
X203750Y4591014D01*
X208199Y4577667D01*
Y4537628D01*
%LPD*%
M02*
