G04 Generated by UcamX,v2020.12-210212 on 2021.4.29*
%FSLAX26Y26*%
%MOIN*%
%ADD10R,0.057087X0.064961*%
%ADD11R,0.098425X0.064961*%
%ADD12R,0.082677X0.017717*%
%ADD13R,0.185039X0.181102*%
%AMREC*21,1-$4,$1,$2,0,0,$3*%
%ADD14REC,0.291340X0.291340X45.00X0*%
%ADD15REC,0.031108X0.014961X45.00X0*%
%ADD16REC,0.031108X0.014961X135.00X0*%
%ADD17REC,0.043312X0.039370X135.00X0*%
%ADD18REC,0.028741X0.025980X45.00X0*%
%ADD19REC,0.039370X0.017712X135.00X0*%
%ADD20REC,0.028346X0.028346X45.00X0*%
%ADD21REC,0.028741X0.025980X135.00X0*%
%ADD22REC,0.043312X0.039370X45.00X0*%
%ADD23REC,0.042126X0.040155X135.00X0*%
%ADD24REC,0.031497X0.027556X135.00X0*%
%ADD25REC,0.039370X0.031497X45.00X0*%
%ADD26REC,0.031497X0.029527X45.00X0*%
%ADD27REC,0.047243X0.047243X45.00X0*%
%ADD28REC,0.032282X0.032282X45.00X0*%
%ADD29REC,0.034248X0.020473X135.00X0*%
%ADD30REC,0.076374X0.046063X135.00X0*%
%ADD31R,0.037402X0.057087*%
%ADD32R,0.059055X0.045276*%
%ADD33R,0.027559X0.035433*%
%ADD34R,0.069220X0.047461*%
%ADD35R,0.033709X0.061268*%
%ADD36R,0.061205X0.065205*%
%ADD37R,0.045276X0.061024*%
%ADD38R,0.057087X0.037402*%
%ADD39R,0.031496X0.055118*%
%ADD40R,0.061024X0.045276*%
%ADD41R,0.036417X0.056102*%
%ADD42R,0.059055X0.047244*%
%ADD43R,0.064961X0.043307*%
%ADD44C,0.043307*%
%ADD45C,0.022835*%
%ADD46R,0.102362X0.259843*%
%ADD47R,0.028346X0.028346*%
%ADD48R,0.057087X0.041339*%
%ADD49R,0.047244X0.047244*%
%ADD50R,0.061024X0.049213*%
%ADD51O,0.061024X0.015748*%
%ADD52O,0.015748X0.061024*%
%ADD53R,0.061811X0.049606*%
%ADD54R,0.062992X0.053150*%
%ADD55R,0.031496X0.029528*%
%ADD56R,0.032283X0.032283*%
%ADD57R,0.028740X0.025984*%
%ADD58R,0.102106X0.294488*%
%ADD59R,0.109055X0.109055*%
%ADD60C,0.109055*%
%ADD61C,0.063583*%
%ADD62C,0.114173*%
%ADD63C,0.061024*%
%ADD64REC,0.061023X0.061023X45.00X0*%
%ADD65C,0.064961*%
%ADD66C,0.059055*%
%ADD67REC,0.059055X0.059055X45.00X0*%
%ADD68C,0.086614*%
%ADD69C,0.062992*%
%ADD70REC,0.062992X0.062992X45.00X0*%
%ADD71C,0.063780*%
%ADD72R,0.063780X0.063780*%
%ADD73C,0.073937*%
%ADD74R,0.062992X0.062992*%
%ADD75C,0.063937*%
%ADD76R,0.063937X0.063937*%
%ADD77R,0.073937X0.073937*%
%ADD78C,0.023622*%
%ADD79C,0.021654*%
%ADD80C,0.135827*%
%ADD81C,0.051181*%
%ADD82C,0.070866*%
%ADD83C,0.240157*%
%ADD84C,0.222835*%
%ADD85C,0.078740*%
%ADD86C,0.118110*%
%ADD87C,0.157480*%
%ADD88C,0.015748*%
%SRX1Y1I0.000000J0.000000*%
G04 layer name: mask-top*
%LPD*%
D10*
X1202823Y3368453D03*
X1124082D03*
D11*
X1208492Y3553453D03*
X1088413D03*
D12*
X5171449Y1125480D03*
X5494283Y1113669D03*
X5171449Y1101858D03*
X5494283Y1090047D03*
X5171449Y2968000D03*
X5494283Y2956193D03*
X5171449Y2802646D03*
X5494283Y2790835D03*
X5171449Y1054614D03*
X5494283Y1042803D03*
X5171449Y1030992D03*
X5494283Y1019181D03*
X5171449Y1007370D03*
X5494283Y995559D03*
X5171449Y960126D03*
X5494283Y948315D03*
X5171449Y936504D03*
X5494283Y924697D03*
Y2530992D03*
Y2507370D03*
Y2601858D03*
X5171449Y3086110D03*
Y3015244D03*
Y2330205D03*
X5494283Y3003433D03*
Y3027055D03*
Y2743591D03*
Y2719969D03*
X5171449Y3416819D03*
Y3345953D03*
X5494283Y3334142D03*
X5171449Y3275087D03*
X5494283Y3263276D03*
X5171449Y3204220D03*
X5494283Y3192409D03*
X5171449Y3133354D03*
X5494283Y3121543D03*
X5171449Y3062488D03*
X5494283Y3050677D03*
X5171449Y2991622D03*
X5494283Y2979815D03*
X5171449Y2779024D03*
X5494283Y2767213D03*
X5171449Y2708157D03*
X5494283Y2696346D03*
X5171449Y2637291D03*
X5494283Y2625480D03*
X5171449Y2566425D03*
X5494283Y2554614D03*
X5171449Y2495563D03*
X5494283Y2483748D03*
X5171449Y2424697D03*
X5494283Y2412882D03*
X5171449Y2353827D03*
X5494283Y2342016D03*
X5171449Y2282961D03*
X5494283Y2271150D03*
X5171449Y2212094D03*
X5494283Y2200283D03*
X5171449Y2141228D03*
X5494283Y2129417D03*
X5171449Y2070362D03*
X5494283Y2058551D03*
X5171449Y1999496D03*
X5494283Y1987685D03*
X5171449Y1928630D03*
X5494283Y1916823D03*
X5171449Y1857764D03*
X5494283Y1845953D03*
X5171449Y1786898D03*
Y1716031D03*
X5494283Y1704220D03*
X5171449Y1645165D03*
X5494283Y1633354D03*
X5171449Y1574299D03*
X5494283Y1562488D03*
X5171449Y1503437D03*
X5494283Y1491622D03*
X5171449Y1432571D03*
Y1361701D03*
X5494283Y1349890D03*
Y1302646D03*
X5171449Y1290835D03*
X5494283Y1279024D03*
X5171449Y1149102D03*
X5494283Y1137291D03*
X5171449Y1078236D03*
X5494283Y1066425D03*
X5171449Y983748D03*
X5494283Y971941D03*
X5171449Y3298709D03*
Y3322331D03*
Y3393201D03*
Y3369579D03*
Y2377453D03*
Y2306583D03*
Y2259339D03*
Y2235717D03*
Y2401071D03*
X5494283Y3381386D03*
Y3357764D03*
Y2578236D03*
X5171449Y1338079D03*
Y1314457D03*
X5494283Y1160913D03*
X5171449Y1172724D03*
X5494283Y1184535D03*
Y1208157D03*
X5171449Y1219969D03*
X5494283Y1231780D03*
X5171449Y1243591D03*
X5494283Y1255402D03*
X5171449Y1267213D03*
X5494283Y1326268D03*
Y1373512D03*
X5171449Y1385327D03*
X5494283Y1397134D03*
X5171449Y1408949D03*
X5494283Y1420756D03*
Y1444378D03*
X5171449Y1456189D03*
X5494283Y1468000D03*
X5171449Y1479811D03*
X5494283Y1515244D03*
X5171449Y1527055D03*
X5494283Y1538866D03*
X5171449Y1550677D03*
X5494283Y1586110D03*
X5171449Y1597921D03*
X5494283Y1609732D03*
X5171449Y1621543D03*
X5494283Y1656976D03*
X5171449Y1668787D03*
X5494283Y1680598D03*
X5171449Y1692409D03*
X5494283Y1727843D03*
X5171449Y1739654D03*
X5494283Y1751465D03*
X5171449Y1763276D03*
X5494283Y1775087D03*
Y1798709D03*
X5171449Y1810520D03*
X5494283Y1822331D03*
X5171449Y1834142D03*
X5494283Y1869575D03*
X5171449Y1881386D03*
X5494283Y1893201D03*
X5171449Y1905008D03*
X5494283Y1940441D03*
X5171449Y1952252D03*
X5494283Y1964067D03*
X5171449Y1975874D03*
X5494283Y2011307D03*
X5171449Y2023118D03*
X5494283Y2034929D03*
X5171449Y2046740D03*
X5494283Y2082173D03*
X5171449Y2093984D03*
X5494283Y2105795D03*
X5171449Y2117606D03*
X5494283Y2153039D03*
X5171449Y2164850D03*
X5494283Y2176661D03*
X5171449Y2188472D03*
X5494283Y2223906D03*
Y2247528D03*
X5171449Y2448319D03*
Y2471937D03*
Y2519181D03*
Y2542803D03*
Y2590047D03*
Y2613669D03*
X5494283Y3145165D03*
Y3168787D03*
Y3216031D03*
Y3239654D03*
Y3286898D03*
Y3310520D03*
Y3405008D03*
Y2294772D03*
Y2436504D03*
X5171449Y3038866D03*
X5494283Y2389260D03*
X5171449Y3156976D03*
Y3180598D03*
X5494283Y2318394D03*
Y3097921D03*
Y2365638D03*
Y2460126D03*
Y3074299D03*
Y2649102D03*
X5171449Y3251465D03*
Y2660913D03*
Y1196346D03*
Y2755402D03*
Y2684535D03*
X5494283Y2672724D03*
X5171449Y2731780D03*
Y3109732D03*
Y3227843D03*
D13*
X5805307Y901071D03*
Y3456189D03*
D14*
X9946890Y3100559D03*
D15*
X9931299Y2876177D03*
X9917378Y2890098D03*
X9903460Y2904016D03*
X9889539Y2917937D03*
X9875622Y2931854D03*
X9861701Y2945776D03*
X9847783Y2959697D03*
X9833862Y2973614D03*
X9819941Y2987535D03*
X9806023Y3001453D03*
X9792102Y3015374D03*
X9778185Y3029291D03*
X9764264Y3043213D03*
X9750346Y3057130D03*
X9736425Y3071051D03*
X9722508Y3084969D03*
X9962476Y3324941D03*
X9976397Y3311020D03*
X9990315Y3297102D03*
X10004236Y3283181D03*
X10018153Y3269264D03*
X10032075Y3255343D03*
X10045992Y3241425D03*
X10059913Y3227504D03*
X10073834Y3213587D03*
X10087752Y3199665D03*
X10101673Y3185748D03*
X10115590Y3171827D03*
X10129512Y3157909D03*
X10143429Y3143988D03*
X10157350Y3130067D03*
X10171268Y3116150D03*
D16*
X9722508D03*
X9736425Y3130067D03*
X9750346Y3143988D03*
X9764264Y3157909D03*
X9778185Y3171827D03*
X9792102Y3185748D03*
X9806023Y3199665D03*
X9819941Y3213587D03*
X9833862Y3227504D03*
X9847783Y3241425D03*
X9861701Y3255343D03*
X9875622Y3269264D03*
X9889539Y3283181D03*
X9903460Y3297102D03*
X9917378Y3311020D03*
X9931299Y3324941D03*
X10171268Y3084969D03*
X10157350Y3071051D03*
X10143429Y3057130D03*
X10129512Y3043213D03*
X10115590Y3029291D03*
X10101673Y3015374D03*
X10087752Y3001453D03*
X10073834Y2987535D03*
X10059913Y2973614D03*
X10045992Y2959697D03*
X10032075Y2945776D03*
X10018153Y2931854D03*
X10004236Y2917937D03*
X9990315Y2904016D03*
X9976397Y2890098D03*
X9962476Y2876177D03*
D17*
X9784842Y2646732D03*
X9724988Y2706583D03*
X9681838Y2663433D03*
X9741693Y2603579D03*
D18*
X9812602Y2769567D03*
X9785602Y2796571D03*
D19*
X9593720Y2875303D03*
X9641047Y2827976D03*
X9617386Y2804311D03*
X9570059Y2851638D03*
X9953441Y2576028D03*
X10000768Y2528701D03*
X9977102Y2505035D03*
X9929779Y2552362D03*
X10437807Y3058980D03*
X10485134Y3011654D03*
X10461472Y2987992D03*
X10414145Y3035315D03*
D20*
X9632016Y2611606D03*
X9657071Y2586551D03*
X9826252Y2686638D03*
X9851307Y2661583D03*
X10234882Y3065713D03*
X10259937Y3040657D03*
X9845972Y3300870D03*
X9871027Y3325925D03*
D21*
X9673303Y3003752D03*
X9646299Y2976748D03*
X10134205Y2897555D03*
X10161208Y2924555D03*
X9631586Y3045472D03*
X9604582Y3018469D03*
X9756744Y2920315D03*
X9729740Y2893311D03*
X9715023Y2962035D03*
X9688019Y2935031D03*
D22*
X9780362Y3243043D03*
X9735819Y3287587D03*
X10188366Y2992016D03*
X10232909Y2947472D03*
D23*
X9853205Y3405685D03*
X9810055Y3362535D03*
D24*
X9913193Y2513417D03*
X9943815Y2482795D03*
X9992386Y2594028D03*
X10023012Y2563402D03*
X10394732Y2999197D03*
X10425354Y2968575D03*
X10476756Y3076980D03*
X10507378Y3046358D03*
D25*
X9923240Y2779138D03*
X9884268Y2818114D03*
X10039913Y1939803D03*
X10000941Y1978776D03*
X9334220Y1420787D03*
X9295248Y1459760D03*
D26*
X9957086Y2814587D03*
X9994669Y2777004D03*
X10085886Y2605177D03*
X10048303Y2642760D03*
X10573791Y3093083D03*
X10536208Y3130665D03*
D27*
X9611720Y3106217D03*
X9561610Y3056106D03*
D28*
X9010193Y2030484D03*
X9038031Y2002646D03*
X9061811Y2082102D03*
X9089653Y2054264D03*
X9115067Y2134913D03*
X9142905Y2107075D03*
X9167878Y2188169D03*
X9195716Y2160331D03*
D29*
X9850315Y2453256D03*
X9887897Y2415673D03*
X10335390Y2939744D03*
X10372972Y2902161D03*
D30*
X11098252Y2904177D03*
X11175645Y2981571D03*
D31*
X1657547Y2976878D03*
X1722508D03*
X2252547Y2376878D03*
X2317508D03*
X2859516Y1788138D03*
X2924476D03*
D32*
X1977527Y3189476D03*
Y3264280D03*
D33*
X1393886Y3214378D03*
X1460815D03*
X2670815Y3206878D03*
X2603886D03*
X1988886Y2614378D03*
X2055815D03*
X2642783Y2023138D03*
X2575854D03*
D34*
X1570027Y3026626D03*
Y3127130D03*
Y3312130D03*
Y3211626D03*
X2760027Y3302130D03*
Y3201626D03*
Y3016626D03*
Y3117130D03*
X2165027Y2712130D03*
Y2426626D03*
Y2527130D03*
Y2611626D03*
X2771996Y2123390D03*
Y2022886D03*
Y1837886D03*
Y1938390D03*
D35*
X1887350Y3491878D03*
X1802705D03*
D36*
X3071476Y3481878D03*
X2998579D03*
D37*
X2916445Y2966878D03*
X2843610D03*
D38*
X3167527Y3184398D03*
Y3249358D03*
D39*
X2477429Y2891878D03*
X2402626D03*
D40*
X2572527Y2590461D03*
Y2663295D03*
D41*
X3078492Y2303138D03*
X3015500D03*
D42*
X3179496Y2003689D03*
Y2072587D03*
D43*
X5123327Y3901461D03*
X5330019D03*
Y3775476D03*
X5123327D03*
D44*
X5723453Y3728453D03*
X5638453D03*
D45*
X4837299Y3707283D03*
X4797929Y3667913D03*
X4679819Y3549803D03*
X4837299Y3392323D03*
Y3195472D03*
X4561705Y3156102D03*
X4679819Y3037992D03*
X4561705Y3431693D03*
X4522334Y3707283D03*
Y3392323D03*
X4482968D03*
X4522334Y3352953D03*
Y3313583D03*
X4443598Y3392323D03*
X4404228D03*
X4443598Y3313583D03*
X4404228D03*
X4364858Y3392323D03*
X4522334Y3274213D03*
Y3234843D03*
X4482968Y3195472D03*
X4522334D03*
X4443598Y3274213D03*
Y3195472D03*
X4404228D03*
Y3274213D03*
X4364858Y3195472D03*
X4837299Y2880512D03*
X4797929Y2919882D03*
X4522334Y2880512D03*
X4325488Y3707283D03*
Y3352953D03*
Y3392323D03*
Y3234843D03*
Y3195472D03*
Y3313583D03*
Y3274213D03*
Y2880512D03*
X4286118Y3431693D03*
Y3156102D03*
X4049897Y3667913D03*
X4168008Y3549803D03*
X4010527Y3707283D03*
Y3392323D03*
Y3195472D03*
X4168008Y3037992D03*
X4049897Y2919882D03*
X4010527Y2880512D03*
Y3667913D03*
Y3628543D03*
Y3589173D03*
Y3549803D03*
Y3510433D03*
Y3471063D03*
Y3431693D03*
Y3352953D03*
Y3313583D03*
Y3274213D03*
Y3234843D03*
Y3156102D03*
Y3116732D03*
Y3077362D03*
Y3037992D03*
Y2998622D03*
Y2959252D03*
Y2919882D03*
X4049897Y3707283D03*
Y3628543D03*
Y3589173D03*
Y3549803D03*
Y3510433D03*
Y3471063D03*
Y3431693D03*
Y3392323D03*
Y3352953D03*
Y3313583D03*
Y3274213D03*
Y3234843D03*
Y3195472D03*
Y3156102D03*
Y3116732D03*
Y3077362D03*
Y3037992D03*
Y2998622D03*
Y2959252D03*
Y2880512D03*
X4089268Y3707283D03*
Y3667913D03*
Y3628543D03*
Y3589173D03*
Y3549803D03*
Y3510433D03*
Y3471063D03*
Y3431693D03*
Y3392323D03*
Y3352953D03*
Y3313583D03*
Y3274213D03*
Y3234843D03*
Y3195472D03*
Y3156102D03*
Y3116732D03*
Y3077362D03*
Y3037992D03*
Y2998622D03*
Y2959252D03*
Y2919882D03*
Y2880512D03*
X4128638Y3707283D03*
Y3667913D03*
Y3628543D03*
Y3589173D03*
Y3549803D03*
Y3510433D03*
Y3471063D03*
Y3431693D03*
Y3392323D03*
Y3352953D03*
Y3313583D03*
Y3274213D03*
Y3234843D03*
Y3195472D03*
Y3156102D03*
Y3116732D03*
Y3077362D03*
Y3037992D03*
Y2998622D03*
Y2959252D03*
Y2919882D03*
Y2880512D03*
X4168008Y3707283D03*
Y3667913D03*
Y3628543D03*
Y3589173D03*
Y3510433D03*
Y3471063D03*
Y3431693D03*
Y3392323D03*
Y3352953D03*
Y3313583D03*
Y3274213D03*
Y3234843D03*
Y3195472D03*
Y3156102D03*
Y3116732D03*
Y3077362D03*
Y2998622D03*
Y2959252D03*
Y2919882D03*
Y2880512D03*
X4207378Y3707283D03*
Y3667913D03*
Y3628543D03*
Y3589173D03*
Y3549803D03*
Y3510433D03*
Y3471063D03*
Y3431693D03*
Y3392323D03*
Y3352953D03*
Y3313583D03*
Y3274213D03*
Y3234843D03*
Y3195472D03*
Y3156102D03*
Y3116732D03*
Y3077362D03*
Y3037992D03*
Y2998622D03*
Y2959252D03*
Y2919882D03*
Y2880512D03*
X4246748Y3707283D03*
Y3667913D03*
Y3628543D03*
Y3589173D03*
Y3549803D03*
Y3510433D03*
Y3471063D03*
Y3431693D03*
Y3392323D03*
Y3352953D03*
Y3313583D03*
Y3274213D03*
Y3234843D03*
Y3195472D03*
Y3156102D03*
Y3116732D03*
Y3077362D03*
Y3037992D03*
Y2998622D03*
Y2959252D03*
Y2919882D03*
Y2880512D03*
X4286118Y3707283D03*
Y3667913D03*
Y3628543D03*
Y3589173D03*
Y3549803D03*
Y3510433D03*
Y3471063D03*
Y3392323D03*
Y3352953D03*
Y3313583D03*
Y3274213D03*
Y3234843D03*
Y3195472D03*
Y3116732D03*
Y3077362D03*
Y3037992D03*
Y2998622D03*
Y2959252D03*
Y2919882D03*
Y2880512D03*
X4325488Y3667913D03*
Y3628543D03*
Y3589173D03*
Y3549803D03*
Y3510433D03*
Y3471063D03*
Y3431693D03*
Y3156102D03*
Y3116732D03*
Y3077362D03*
Y3037992D03*
Y2998622D03*
Y2959252D03*
Y2919882D03*
X4364858Y3707283D03*
Y3667913D03*
Y3628543D03*
Y3589173D03*
Y3549803D03*
Y3510433D03*
Y3471063D03*
Y3431693D03*
Y3352953D03*
Y3313583D03*
Y3274213D03*
Y3234843D03*
Y3156102D03*
Y3116732D03*
Y3077362D03*
Y3037992D03*
Y2998622D03*
Y2959252D03*
Y2919882D03*
Y2880512D03*
X4404228Y3707283D03*
Y3667913D03*
Y3628543D03*
Y3589173D03*
Y3549803D03*
Y3510433D03*
Y3471063D03*
Y3431693D03*
Y3352953D03*
Y3234843D03*
Y3156102D03*
Y3116732D03*
Y3077362D03*
Y3037992D03*
Y2998622D03*
Y2959252D03*
Y2919882D03*
Y2880512D03*
X4443598Y3707283D03*
Y3667913D03*
Y3628543D03*
Y3589173D03*
Y3549803D03*
Y3510433D03*
Y3471063D03*
Y3431693D03*
Y3352953D03*
Y3234843D03*
Y3156102D03*
Y3116732D03*
Y3077362D03*
Y3037992D03*
Y2998622D03*
Y2959252D03*
Y2919882D03*
Y2880512D03*
X4482968Y3707283D03*
Y3667913D03*
Y3628543D03*
Y3589173D03*
Y3549803D03*
Y3510433D03*
Y3471063D03*
Y3431693D03*
Y3352953D03*
Y3313583D03*
Y3274213D03*
Y3234843D03*
Y3156102D03*
Y3116732D03*
Y3077362D03*
Y3037992D03*
Y2998622D03*
Y2959252D03*
Y2919882D03*
Y2880512D03*
X4522334Y3667913D03*
Y3628543D03*
Y3589173D03*
Y3549803D03*
Y3510433D03*
Y3471063D03*
Y3431693D03*
Y3156102D03*
Y3116732D03*
Y3077362D03*
Y3037992D03*
Y2998622D03*
Y2959252D03*
Y2919882D03*
X4561705Y3707283D03*
Y3667913D03*
Y3628543D03*
Y3589173D03*
Y3549803D03*
Y3510433D03*
Y3471063D03*
Y3392323D03*
Y3352953D03*
Y3313583D03*
Y3274213D03*
Y3234843D03*
Y3195472D03*
Y3116732D03*
Y3077362D03*
Y3037992D03*
Y2998622D03*
Y2959252D03*
Y2919882D03*
Y2880512D03*
X4601075Y3707283D03*
Y3667913D03*
Y3628543D03*
Y3589173D03*
Y3549803D03*
Y3510433D03*
Y3471063D03*
Y3431693D03*
Y3392323D03*
Y3352953D03*
Y3313583D03*
Y3274213D03*
Y3234843D03*
Y3195472D03*
Y3156102D03*
Y3116732D03*
Y3077362D03*
Y3037992D03*
Y2998622D03*
Y2959252D03*
Y2919882D03*
Y2880512D03*
X4640445Y3707283D03*
Y3667913D03*
Y3628543D03*
Y3589173D03*
Y3549803D03*
Y3510433D03*
Y3471063D03*
Y3431693D03*
Y3392323D03*
Y3352953D03*
Y3313583D03*
Y3274213D03*
Y3234843D03*
Y3195472D03*
Y3156102D03*
Y3116732D03*
Y3077362D03*
Y3037992D03*
Y2998622D03*
Y2959252D03*
Y2919882D03*
Y2880512D03*
X4679819Y3707283D03*
Y3667913D03*
Y3628543D03*
Y3589173D03*
Y3510433D03*
Y3471063D03*
Y3431693D03*
Y3392323D03*
Y3352953D03*
Y3313583D03*
Y3274213D03*
Y3234843D03*
Y3195472D03*
Y3156102D03*
Y3116732D03*
Y3077362D03*
Y2998622D03*
Y2959252D03*
Y2919882D03*
Y2880512D03*
X4719189Y3707283D03*
Y3667913D03*
Y3628543D03*
Y3589173D03*
Y3549803D03*
Y3510433D03*
Y3471063D03*
Y3431693D03*
Y3392323D03*
Y3352953D03*
Y3313583D03*
Y3274213D03*
Y3234843D03*
Y3195472D03*
Y3156102D03*
Y3116732D03*
Y3077362D03*
Y3037992D03*
Y2998622D03*
Y2959252D03*
Y2919882D03*
Y2880512D03*
X4758559Y3707283D03*
Y3667913D03*
Y3628543D03*
Y3589173D03*
Y3549803D03*
Y3510433D03*
Y3471063D03*
Y3431693D03*
Y3392323D03*
Y3352953D03*
Y3313583D03*
Y3274213D03*
Y3234843D03*
Y3195472D03*
Y3156102D03*
Y3116732D03*
Y3077362D03*
Y3037992D03*
Y2998622D03*
Y2959252D03*
Y2919882D03*
Y2880512D03*
X4797929Y3707283D03*
Y3628543D03*
Y3589173D03*
Y3549803D03*
Y3510433D03*
Y3471063D03*
Y3431693D03*
Y3392323D03*
Y3352953D03*
Y3313583D03*
Y3274213D03*
Y3234843D03*
Y3195472D03*
Y3156102D03*
Y3116732D03*
Y3077362D03*
Y3037992D03*
Y2998622D03*
Y2959252D03*
Y2880512D03*
X4837299Y3667913D03*
Y3628543D03*
Y3589173D03*
Y3549803D03*
Y3510433D03*
Y3471063D03*
Y3431693D03*
Y3352953D03*
Y3313583D03*
Y3274213D03*
Y3234843D03*
Y3156102D03*
Y3116732D03*
Y3077362D03*
Y3037992D03*
Y2998622D03*
Y2959252D03*
Y2919882D03*
D46*
X7579555Y3197335D03*
Y1823209D03*
Y2315335D03*
Y2705209D03*
D47*
X4987283Y1942606D03*
Y1879039D03*
X4996519Y1589252D03*
X3948201Y2218917D03*
X3931874Y2052220D03*
X3942614Y1727528D03*
X3931874Y2016787D03*
X3942614Y1692098D03*
X4987283Y1978039D03*
Y1843606D03*
X4996519Y1624685D03*
X3948201Y2183488D03*
X4660283Y2456606D03*
Y2492039D03*
X4802000Y2406323D03*
X4536567Y1407323D03*
X4355567D03*
X4288000Y2431327D03*
X4168236Y1395193D03*
X4391000Y1407323D03*
X4203669Y1395193D03*
X4572000Y1407323D03*
X4252563Y2431327D03*
X4658000Y2407327D03*
X4622563D03*
X4766563Y2406323D03*
D48*
X2483453Y3886957D03*
X10647295Y3945787D03*
X2483453Y3949949D03*
X10647295Y4008780D03*
D49*
X2393453Y3894988D03*
X10803453Y4006811D03*
X2393453Y3965854D03*
X10803453Y3935945D03*
D50*
X10547295Y3941850D03*
Y4012717D03*
D51*
X4896527Y2186075D03*
Y1890795D03*
Y1949850D03*
X4052039Y2186075D03*
Y2028591D03*
Y1693949D03*
X4896527Y2264811D03*
Y2245126D03*
Y2225445D03*
Y2205756D03*
Y2166386D03*
Y2146705D03*
Y2127016D03*
Y2107335D03*
Y2087646D03*
Y2067965D03*
Y2048276D03*
Y2028591D03*
Y2008906D03*
Y1989220D03*
Y1969535D03*
Y1930165D03*
Y1910480D03*
Y1871110D03*
Y1851425D03*
Y1831740D03*
Y1812055D03*
Y1792370D03*
Y1772685D03*
Y1753000D03*
Y1733319D03*
Y1713630D03*
Y1693949D03*
Y1674260D03*
Y1654579D03*
Y1634890D03*
Y1615209D03*
Y1595520D03*
Y1575839D03*
X4052039D03*
Y1595520D03*
Y1615209D03*
Y1634890D03*
Y1654579D03*
Y1674260D03*
Y1713630D03*
Y1733319D03*
Y1753000D03*
Y1772685D03*
Y1792370D03*
Y1812055D03*
Y1831740D03*
Y1851425D03*
Y1871110D03*
Y1890795D03*
Y1910480D03*
Y1930165D03*
Y1949850D03*
Y1969535D03*
Y1989220D03*
Y2008906D03*
Y2048276D03*
Y2067965D03*
Y2087646D03*
Y2107335D03*
Y2127016D03*
Y2146705D03*
Y2166386D03*
Y2205756D03*
Y2225445D03*
Y2245126D03*
Y2264811D03*
D52*
X4700661Y2342567D03*
X4779401D03*
X4543181Y1498083D03*
X4366016D03*
X4287275Y2342567D03*
X4188850Y1498083D03*
X4818771D03*
X4799086D03*
X4779401D03*
X4759716D03*
X4740031D03*
X4720346D03*
X4700661D03*
X4680976D03*
X4661291D03*
X4641606D03*
X4621921D03*
X4602236D03*
X4582551D03*
X4562866D03*
X4523496D03*
X4503811D03*
X4484126D03*
X4464441D03*
X4444756D03*
X4425071D03*
X4405386D03*
X4385701D03*
X4346331D03*
X4326645D03*
X4306960D03*
X4287275D03*
X4267590D03*
X4247905D03*
X4228220D03*
X4208535D03*
X4169165D03*
X4149480D03*
X4129795D03*
Y2342567D03*
X4149480D03*
X4169165D03*
X4188850D03*
X4208535D03*
X4228220D03*
X4247905D03*
X4267590D03*
X4306960D03*
X4326645D03*
X4346331D03*
X4366016D03*
X4385701D03*
X4405386D03*
X4425071D03*
X4444756D03*
X4464441D03*
X4484126D03*
X4503811D03*
X4523496D03*
X4543181D03*
X4562866D03*
X4582551D03*
X4602236D03*
X4621921D03*
X4641606D03*
X4661291D03*
X4680976D03*
X4720346D03*
X4740031D03*
X4759716D03*
X4799086D03*
X4818771D03*
D53*
X4720331Y1293228D03*
Y1362122D03*
D54*
X2203453Y3861130D03*
Y3778453D03*
X10268453Y4014685D03*
Y3932008D03*
X10389610Y4016654D03*
Y3933976D03*
X2078453Y3861130D03*
Y3778453D03*
D55*
X4958283Y1703898D03*
Y1650748D03*
D56*
X6165771Y2766563D03*
Y2805933D03*
D57*
X4610771Y2456972D03*
Y2495161D03*
D58*
X7579642Y3214657D03*
X7579472Y1805886D03*
X7579642Y2332657D03*
X7579472Y2687886D03*
D59*
X1077547Y4158453D03*
D60*
X1233453D03*
X1389358D03*
D61*
X1532862Y3748453D03*
X1334043D03*
D62*
X10781496Y3056020D03*
X10415693Y2690217D03*
X10295008Y2569528D03*
X9929205Y2203724D03*
D63*
X10620586Y3045996D03*
X10550992Y2976398D03*
X10495311Y2920720D03*
X10134098Y2559508D03*
X10064500Y2489909D03*
X10008823Y2434232D03*
D64*
X10425716Y2851122D03*
X9939224Y2364634D03*
D65*
X9824464Y1907799D03*
X9753752Y1837087D03*
X9526031Y1609366D03*
X9455319Y1538657D03*
D66*
X9509189Y2172130D03*
X9438476Y2101417D03*
X9367768Y2030709D03*
X9297055Y1959996D03*
X9403122Y2207484D03*
X9332413Y2136772D03*
X9261701Y2066063D03*
X9190992Y1995350D03*
X9226346Y1889287D03*
D67*
X9120279Y1924642D03*
D68*
X9226346Y1705551D03*
X9657571Y2136772D03*
D69*
X9389689Y1304508D03*
X3696283Y3331772D03*
Y3231772D03*
Y3031772D03*
X3707283Y1860772D03*
X3696283Y3995772D03*
Y3895772D03*
Y3795772D03*
Y3695772D03*
Y3595772D03*
X3796283Y3431772D03*
Y3331772D03*
Y3231772D03*
X3696283Y3131772D03*
X3796283D03*
Y3031772D03*
X3707283Y1660772D03*
X3607283D03*
X3707283Y1760772D03*
X3607283D03*
Y1860772D03*
X3707283Y1960772D03*
X3607283D03*
X3707283Y2060772D03*
X3607283D03*
X3707283Y2160772D03*
X3607283D03*
X3707283Y2260772D03*
X3607283D03*
X3707283Y2360772D03*
X3607283D03*
X3707283Y2460772D03*
X3607283D03*
X3707283Y2560772D03*
X3607283D03*
X3707283Y2660772D03*
X3607283D03*
X3707283Y2760772D03*
D70*
X9460397Y1233799D03*
D71*
X2793453Y4178453D03*
X2693453D03*
X2393453D03*
X2293453D03*
X2193453D03*
X2093453D03*
X1993453D03*
X1893453D03*
X1793453D03*
X2493453D03*
X2593453D03*
X9968453Y4183453D03*
X10068453D03*
X10168453D03*
X10268453D03*
X10368453D03*
X10468453D03*
X10568453D03*
X10668453D03*
X10768453D03*
X10868453D03*
X10968453D03*
D72*
X1693453Y4178453D03*
X9868453Y4183453D03*
D73*
X8109555Y2406051D03*
X7049555D03*
X8109555Y1506051D03*
Y1606051D03*
Y1706051D03*
Y1806051D03*
Y1906051D03*
Y2006051D03*
Y2106051D03*
Y2206051D03*
Y2306051D03*
Y2506051D03*
Y2606051D03*
Y2706051D03*
Y2806051D03*
Y2906051D03*
Y3006051D03*
Y3106051D03*
Y3206051D03*
Y3306051D03*
Y3406051D03*
X7049555Y3306051D03*
Y3206051D03*
Y3106051D03*
Y3006051D03*
Y2906051D03*
Y2806051D03*
Y2706051D03*
Y2606051D03*
Y2506051D03*
Y2306051D03*
Y2206051D03*
Y2106051D03*
Y2006051D03*
Y1906051D03*
Y1806051D03*
Y1706051D03*
Y1606051D03*
Y1506051D03*
Y1406051D03*
D74*
X3696283Y4095772D03*
X3607283Y2760772D03*
X3696283Y3431772D03*
D75*
X8488177Y3321051D03*
Y3421051D03*
Y3521051D03*
X8471559Y1242272D03*
Y1342272D03*
Y1442272D03*
D76*
X8488177Y3621051D03*
X8471559Y1542272D03*
D77*
X8109555Y1406051D03*
X7049555Y3406051D03*
D78*
X9946890Y3284295D03*
X9977512Y3253673D03*
X10008134Y3223051D03*
X10038756Y3192429D03*
X10069378Y3161807D03*
X10100000Y3131181D03*
X10130626Y3100559D03*
X9916264Y3253673D03*
X9946890Y3223051D03*
X9977512Y3192429D03*
X10008134Y3161807D03*
X10038756Y3131181D03*
X10069378Y3100559D03*
X10100000Y3069937D03*
X9885642Y3223051D03*
X9916264Y3192429D03*
X9946890Y3161807D03*
X9977512Y3131181D03*
X10008134Y3100559D03*
X10038756Y3069937D03*
X10069378Y3039315D03*
X9855019Y3192429D03*
X9885642Y3161807D03*
X9916264Y3131181D03*
X9946890Y3100559D03*
X9977512Y3069937D03*
X10008134Y3039315D03*
X10038756Y3008693D03*
X9824397Y3161807D03*
X9855019Y3131181D03*
X9885642Y3100559D03*
X9916264Y3069937D03*
X9946890Y3039315D03*
X9977512Y3008693D03*
X10008134Y2978067D03*
X9793775Y3131181D03*
X9824397Y3100559D03*
X9855019Y3069937D03*
X9885642Y3039315D03*
X9916264Y3008693D03*
X9946890Y2978067D03*
X9977512Y2947445D03*
X9763149Y3100559D03*
X9793775Y3069937D03*
X9824397Y3039315D03*
X9855019Y3008693D03*
X9885642Y2978067D03*
X9916264Y2947445D03*
X9946890Y2916823D03*
D79*
X1681602Y3246563D03*
X1720972D03*
Y3207193D03*
Y3167823D03*
X1878453D03*
Y3128453D03*
X1799712D03*
Y3089083D03*
X1839082Y3128453D03*
Y3089083D03*
X1720972D03*
X1760342D03*
X1839082Y3285933D03*
X1878453D03*
X1681602D03*
X1720972D03*
X1760342D03*
X1799712D03*
X1760342Y3246563D03*
X1799712D03*
X1839082D03*
X1878453D03*
X1760342Y3207193D03*
X1799712D03*
X1839082D03*
X1878453D03*
X1760342Y3167823D03*
X1799712D03*
X1839082D03*
X1760342Y3128453D03*
X1681602Y3089083D03*
X1878453D03*
X1681602Y3207193D03*
Y3167823D03*
Y3128453D03*
X1720972D03*
X1681602Y3364673D03*
X1720972D03*
X1760342D03*
X1799712D03*
X1839082D03*
X1878453D03*
X1681602Y3325303D03*
X1720972D03*
X1760342D03*
X1799712D03*
X1839082D03*
X1878453D03*
X3068453Y3079083D03*
X3029082D03*
X2989712D03*
X2950342D03*
X2910972D03*
X2871602D03*
X3068453Y3118453D03*
X3029082D03*
X2989712D03*
X2950342D03*
X2910972D03*
X2871602D03*
X3068453Y3157823D03*
X3029082D03*
X2989712D03*
X2950342D03*
X2910972D03*
X2871602D03*
X3068453Y3197193D03*
X3029082D03*
X2989712D03*
X2950342D03*
X2910972D03*
X2871602D03*
X3068453Y3236563D03*
X3029082D03*
X2989712D03*
X2950342D03*
X2910972D03*
X2871602D03*
X3068453Y3275933D03*
X3029082D03*
X2989712D03*
X2950342D03*
X2910972D03*
X2871602D03*
X3068453Y3315303D03*
X3029082D03*
X2989712D03*
X2950342D03*
X2910972D03*
X2871602D03*
X3068453Y3354673D03*
X3029082D03*
X2989712D03*
X2950342D03*
X2910972D03*
X2871602D03*
X2473453Y2489083D03*
X2276602D03*
X2355342Y2528453D03*
X2434082Y2567823D03*
X2394712D03*
X2355342D03*
X2473453Y2607193D03*
X2434082D03*
X2394712D03*
X2355342D03*
X2473453Y2646563D03*
X2434082D03*
X2394712D03*
X2355342D03*
X2394712Y2685933D03*
X2355342D03*
X2315972D03*
X2276602D03*
X2473453Y2725303D03*
X2434082D03*
X2394712D03*
X2355342D03*
X2315972D03*
X2276602D03*
X2473453Y2764673D03*
X2434082D03*
X2394712D03*
X2355342D03*
X2315972D03*
X2276602D03*
X2315972Y2528453D03*
X2276602D03*
Y2567823D03*
Y2607193D03*
X2473453Y2685933D03*
X2434082D03*
X2355342Y2489083D03*
X2315972D03*
X2434082D03*
Y2528453D03*
X2394712Y2489083D03*
Y2528453D03*
X2473453D03*
Y2567823D03*
X2315972D03*
Y2607193D03*
Y2646563D03*
X2276602D03*
X3080421Y1900343D03*
X3041051D03*
X3001681D03*
X2962311D03*
X2922941D03*
X2883571D03*
X3080421Y1939713D03*
X3041051D03*
X3001681D03*
X2962311D03*
X2922941D03*
X2883571D03*
X3080421Y1979083D03*
X3041051D03*
X3001681D03*
X2962311D03*
X2922941D03*
X2883571D03*
X3080421Y2018453D03*
X3041051D03*
X3001681D03*
X2962311D03*
X2922941D03*
X2883571D03*
X3080421Y2057823D03*
X3041051D03*
X3001681D03*
X2962311D03*
X2922941D03*
X2883571D03*
X3080421Y2097193D03*
X3041051D03*
X3001681D03*
X2962311D03*
X2922941D03*
X2883571D03*
X3080421Y2136563D03*
X3041051D03*
X3001681D03*
X2962311D03*
X2922941D03*
X2883571D03*
X3080421Y2175933D03*
X3041051D03*
X3001681D03*
X2962311D03*
X2922941D03*
X2883571D03*
D80*
X9367768Y1677154D03*
X9685964Y1995350D03*
X196851Y196850D03*
Y4636823D03*
X12477346Y196850D03*
Y4636823D03*
D81*
X5332866Y855795D03*
D82*
Y3485717D03*
D83*
X699252Y4002339D03*
X11974949D03*
X8672374Y699764D03*
X4001827D03*
X6337102Y4239185D03*
D84*
X7774909Y1181642D03*
X7384201Y3630461D03*
D85*
X196851Y590551D03*
D86*
Y4243122D03*
D87*
X12477346D03*
D88*
X-5000Y393701D02*
X12679197D01*
X-5000Y4439973D02*
X12679197D01*
%LPD*%
M02*
