%TF.GenerationSoftware,KiCad,Pcbnew,7.0.2*%
%TF.CreationDate,2023-10-17T13:36:16+00:00*%
%TF.ProjectId,board,626f6172-642e-46b6-9963-61645f706362,01*%
%TF.SameCoordinates,Original*%
%TF.FileFunction,Paste,Top*%
%TF.FilePolarity,Positive*%
%FSLAX46Y46*%
G04 Gerber Fmt 4.6, Leading zero omitted, Abs format (unit mm)*
G04 Created by KiCad (PCBNEW 7.0.2) date 2023-10-17 13:36:16*
%MOMM*%
%LPD*%
G01*
G04 APERTURE LIST*
G04 Aperture macros list*
%AMRoundRect*
0 Rectangle with rounded corners*
0 $1 Rounding radius*
0 $2 $3 $4 $5 $6 $7 $8 $9 X,Y pos of 4 corners*
0 Add a 4 corners polygon primitive as box body*
4,1,4,$2,$3,$4,$5,$6,$7,$8,$9,$2,$3,0*
0 Add four circle primitives for the rounded corners*
1,1,$1+$1,$2,$3*
1,1,$1+$1,$4,$5*
1,1,$1+$1,$6,$7*
1,1,$1+$1,$8,$9*
0 Add four rect primitives between the rounded corners*
20,1,$1+$1,$2,$3,$4,$5,0*
20,1,$1+$1,$4,$5,$6,$7,0*
20,1,$1+$1,$6,$7,$8,$9,0*
20,1,$1+$1,$8,$9,$2,$3,0*%
G04 Aperture macros list end*
%ADD10R,1.500000X2.000000*%
%ADD11R,3.800000X2.000000*%
%ADD12RoundRect,0.200000X-0.275000X0.200000X-0.275000X-0.200000X0.275000X-0.200000X0.275000X0.200000X0*%
%ADD13RoundRect,0.200000X0.200000X0.275000X-0.200000X0.275000X-0.200000X-0.275000X0.200000X-0.275000X0*%
%ADD14RoundRect,0.200000X-0.200000X-0.275000X0.200000X-0.275000X0.200000X0.275000X-0.200000X0.275000X0*%
%ADD15RoundRect,0.250000X0.475000X-0.250000X0.475000X0.250000X-0.475000X0.250000X-0.475000X-0.250000X0*%
%ADD16R,1.200000X1.200000*%
%ADD17RoundRect,0.250000X0.250000X0.475000X-0.250000X0.475000X-0.250000X-0.475000X0.250000X-0.475000X0*%
%ADD18R,0.900000X1.200000*%
%ADD19RoundRect,0.140000X0.170000X-0.140000X0.170000X0.140000X-0.170000X0.140000X-0.170000X-0.140000X0*%
%ADD20RoundRect,0.250000X-0.250000X-0.475000X0.250000X-0.475000X0.250000X0.475000X-0.250000X0.475000X0*%
%ADD21R,0.700000X0.600000*%
%ADD22R,0.600000X0.700000*%
%ADD23RoundRect,0.150000X0.150000X-0.512500X0.150000X0.512500X-0.150000X0.512500X-0.150000X-0.512500X0*%
%ADD24RoundRect,0.250000X0.450000X-0.262500X0.450000X0.262500X-0.450000X0.262500X-0.450000X-0.262500X0*%
%ADD25RoundRect,0.140000X-0.170000X0.140000X-0.170000X-0.140000X0.170000X-0.140000X0.170000X0.140000X0*%
%ADD26RoundRect,0.250000X0.262500X0.450000X-0.262500X0.450000X-0.262500X-0.450000X0.262500X-0.450000X0*%
%ADD27RoundRect,0.150000X-0.825000X-0.150000X0.825000X-0.150000X0.825000X0.150000X-0.825000X0.150000X0*%
%ADD28RoundRect,0.225000X0.250000X-0.225000X0.250000X0.225000X-0.250000X0.225000X-0.250000X-0.225000X0*%
%ADD29RoundRect,0.140000X-0.140000X-0.170000X0.140000X-0.170000X0.140000X0.170000X-0.140000X0.170000X0*%
%ADD30RoundRect,0.100000X0.100000X-0.637500X0.100000X0.637500X-0.100000X0.637500X-0.100000X-0.637500X0*%
%ADD31R,0.650000X0.400000*%
%ADD32RoundRect,0.200000X0.275000X-0.200000X0.275000X0.200000X-0.275000X0.200000X-0.275000X-0.200000X0*%
%ADD33RoundRect,0.250000X-0.262500X-0.450000X0.262500X-0.450000X0.262500X0.450000X-0.262500X0.450000X0*%
G04 APERTURE END LIST*
D10*
%TO.C,Q3*%
X106033600Y-106578000D03*
D11*
X103733600Y-112878000D03*
D10*
X103733600Y-106578000D03*
X101433600Y-106578000D03*
%TD*%
D12*
%TO.C,R7*%
X98171000Y-109080800D03*
X98171000Y-110730800D03*
%TD*%
D13*
%TO.C,R5*%
X138987400Y-103835200D03*
X137337400Y-103835200D03*
%TD*%
D14*
%TO.C,R2*%
X97930200Y-62509400D03*
X99580200Y-62509400D03*
%TD*%
D15*
%TO.C,C7*%
X98526600Y-70647600D03*
X98526600Y-68747600D03*
%TD*%
D16*
%TO.C,D5*%
X131250400Y-68326000D03*
X129150400Y-68326000D03*
%TD*%
D17*
%TO.C,C9*%
X141666000Y-58115200D03*
X139766000Y-58115200D03*
%TD*%
D18*
%TO.C,D10*%
X109015800Y-115722400D03*
X105715800Y-115722400D03*
%TD*%
D19*
%TO.C,C6*%
X125450600Y-104772400D03*
X125450600Y-103812400D03*
%TD*%
D20*
%TO.C,C8*%
X86375200Y-53670200D03*
X88275200Y-53670200D03*
%TD*%
D21*
%TO.C,U5*%
X120294400Y-102167000D03*
X121564400Y-102167000D03*
X122834400Y-102167000D03*
D22*
X123664400Y-102997000D03*
X123664400Y-104267000D03*
X123664400Y-105537000D03*
D21*
X122834400Y-106367000D03*
X121564400Y-106367000D03*
X120294400Y-106367000D03*
D22*
X119464400Y-105537000D03*
X119464400Y-104267000D03*
X119464400Y-102997000D03*
%TD*%
D16*
%TO.C,D8*%
X96079600Y-112903000D03*
X98179600Y-112903000D03*
%TD*%
D10*
%TO.C,Q2*%
X93435200Y-106565100D03*
D11*
X91135200Y-112865100D03*
D10*
X91135200Y-106565100D03*
X88835200Y-106565100D03*
%TD*%
D15*
%TO.C,C13*%
X149428200Y-116875600D03*
X149428200Y-114975600D03*
%TD*%
D16*
%TO.C,D9*%
X108754200Y-112903000D03*
X110854200Y-112903000D03*
%TD*%
%TO.C,D4*%
X108644000Y-68275200D03*
X110744000Y-68275200D03*
%TD*%
D23*
%TO.C,D1*%
X101259600Y-64916900D03*
X102209600Y-64916900D03*
X103159600Y-64916900D03*
X103159600Y-62641900D03*
X102209600Y-62641900D03*
X101259600Y-62641900D03*
%TD*%
D24*
%TO.C,R15*%
X81280000Y-116853300D03*
X81280000Y-115028300D03*
%TD*%
D25*
%TO.C,C1*%
X117525800Y-102999600D03*
X117525800Y-103959600D03*
%TD*%
D18*
%TO.C,D6*%
X141908800Y-115747800D03*
X138608800Y-115747800D03*
%TD*%
D16*
%TO.C,D7*%
X90720200Y-78968600D03*
X92820200Y-78968600D03*
%TD*%
D19*
%TO.C,C4*%
X129362200Y-94714000D03*
X129362200Y-93754000D03*
%TD*%
D18*
%TO.C,D2*%
X96468200Y-115760300D03*
X93168200Y-115760300D03*
%TD*%
D12*
%TO.C,R8*%
X110752200Y-64453000D03*
X110752200Y-66103000D03*
%TD*%
D24*
%TO.C,R16*%
X147345400Y-116838100D03*
X147345400Y-115013100D03*
%TD*%
D13*
%TO.C,R10*%
X93458800Y-103835200D03*
X91808800Y-103835200D03*
%TD*%
D14*
%TO.C,R9*%
X124676400Y-68376800D03*
X126326400Y-68376800D03*
%TD*%
%TO.C,R6*%
X136651000Y-88747600D03*
X138301000Y-88747600D03*
%TD*%
D15*
%TO.C,C12*%
X83515200Y-116865400D03*
X83515200Y-114965400D03*
%TD*%
D26*
%TO.C,R14*%
X141628500Y-55880000D03*
X139803500Y-55880000D03*
%TD*%
D25*
%TO.C,C2*%
X105252400Y-83398500D03*
X105252400Y-84358500D03*
%TD*%
D27*
%TO.C,U4*%
X133883400Y-90551000D03*
X133883400Y-91821000D03*
X133883400Y-93091000D03*
X133883400Y-94361000D03*
X138833400Y-94361000D03*
X138833400Y-93091000D03*
X138833400Y-91821000D03*
X138833400Y-90551000D03*
%TD*%
D28*
%TO.C,C11*%
X143129000Y-90259200D03*
X143129000Y-88709200D03*
%TD*%
D14*
%TO.C,R3*%
X133425200Y-88747600D03*
X135075200Y-88747600D03*
%TD*%
D20*
%TO.C,C3*%
X90490000Y-65557400D03*
X92390000Y-65557400D03*
%TD*%
D13*
%TO.C,R18*%
X106082600Y-103835200D03*
X104432600Y-103835200D03*
%TD*%
D10*
%TO.C,U2*%
X95086200Y-68655800D03*
D11*
X92786200Y-74955800D03*
D10*
X92786200Y-68655800D03*
X90486200Y-68655800D03*
%TD*%
D16*
%TO.C,D3*%
X141774200Y-112903000D03*
X143874200Y-112903000D03*
%TD*%
D12*
%TO.C,R17*%
X110845600Y-109055400D03*
X110845600Y-110705400D03*
%TD*%
D13*
%TO.C,R1*%
X106489000Y-62534800D03*
X104839000Y-62534800D03*
%TD*%
D12*
%TO.C,R11*%
X95631000Y-77305400D03*
X95631000Y-78955400D03*
%TD*%
D29*
%TO.C,C5*%
X133428800Y-87325200D03*
X134388800Y-87325200D03*
%TD*%
D19*
%TO.C,C10*%
X140843000Y-90548400D03*
X140843000Y-89588400D03*
%TD*%
D30*
%TO.C,U1*%
X106528800Y-89128600D03*
X107178800Y-89128600D03*
X107828800Y-89128600D03*
X108478800Y-89128600D03*
X109128800Y-89128600D03*
X109778800Y-89128600D03*
X110428800Y-89128600D03*
X111078800Y-89128600D03*
X111728800Y-89128600D03*
X112378800Y-89128600D03*
X113028800Y-89128600D03*
X113678800Y-89128600D03*
X113678800Y-83403600D03*
X113028800Y-83403600D03*
X112378800Y-83403600D03*
X111728800Y-83403600D03*
X111078800Y-83403600D03*
X110428800Y-83403600D03*
X109778800Y-83403600D03*
X109128800Y-83403600D03*
X108478800Y-83403600D03*
X107828800Y-83403600D03*
X107178800Y-83403600D03*
X106528800Y-83403600D03*
%TD*%
D31*
%TO.C,U3*%
X126024600Y-93101400D03*
X126024600Y-93751400D03*
X126024600Y-94401400D03*
X127924600Y-94401400D03*
X127924600Y-93751400D03*
X127924600Y-93101400D03*
%TD*%
D32*
%TO.C,R12*%
X106471600Y-92755300D03*
X106471600Y-91105300D03*
%TD*%
D33*
%TO.C,R13*%
X86412700Y-55930800D03*
X88237700Y-55930800D03*
%TD*%
D10*
%TO.C,Q1*%
X138952000Y-106578000D03*
X136652000Y-106578000D03*
D11*
X136652000Y-112878000D03*
D10*
X134352000Y-106578000D03*
%TD*%
D12*
%TO.C,R4*%
X143865600Y-108953800D03*
X143865600Y-110603800D03*
%TD*%
M02*
